<svg xmlns="http://www.w3.org/2000/svg" width="38" height="24" viewBox="0 0 38 24">
    <g fill="none" fill-rule="evenodd">
        <rect width="38" height="24" fill="#A7AFC6" rx="2"/>
        <g fill="#FFF">
            <path d="M11.768 19.341a.665.665 0 0 0-.224-.147.751.751 0 0 0-.285-.053c-.054 0-.11.005-.17.014a.748.748 0 0 0-.172.05.593.593 0 0 0-.293.257.647.647 0 0 0-.247-.235.725.725 0 0 0-.355-.086.827.827 0 0 0-.14.012.643.643 0 0 0-.277.124.572.572 0 0 0-.117.13v-.219H9.11v1.8h.381v-.998c0-.076.012-.144.037-.204a.404.404 0 0 1 .24-.24.488.488 0 0 1 .174-.031c.128 0 .228.04.299.122.07.081.106.198.106.35v1h.382v-.997c0-.076.012-.144.036-.204a.405.405 0 0 1 .24-.24.487.487 0 0 1 .175-.031c.128 0 .228.04.299.122.07.081.106.198.106.35v1h.381v-1.13a.782.782 0 0 0-.051-.29.658.658 0 0 0-.147-.226M13.766 20.317a.514.514 0 0 1-.503.347.507.507 0 0 1-.505-.353.66.66 0 0 1-.038-.223.66.66 0 0 1 .038-.224.507.507 0 0 1 .505-.353.515.515 0 0 1 .503.347c.026.07.04.147.04.23a.646.646 0 0 1-.04.229zm.015-.911a.703.703 0 0 0-.233-.192.712.712 0 0 0-.332-.073.882.882 0 0 0-.83.566c-.047.116-.07.243-.07.38 0 .138.023.265.07.38a.878.878 0 0 0 1.162.495.694.694 0 0 0 .233-.19v.215h.392v-1.799h-.392v.218zM15.977 20.085a.97.97 0 0 0-.46-.172l-.186-.028a1.62 1.62 0 0 1-.116-.022.378.378 0 0 1-.094-.033.179.179 0 0 1-.063-.052.13.13 0 0 1-.023-.079c0-.064.03-.116.089-.155a.451.451 0 0 1 .25-.06c.057 0 .112.006.167.016a1.383 1.383 0 0 1 .288.087 1.1 1.1 0 0 1 .101.052l.17-.306a1.152 1.152 0 0 0-.33-.14 1.558 1.558 0 0 0-.4-.05c-.114 0-.218.014-.309.04a.708.708 0 0 0-.234.115.5.5 0 0 0-.2.422c0 .145.052.262.155.352.103.09.255.148.456.175l.187.025c.108.015.187.039.237.072.05.033.075.075.075.127 0 .067-.034.12-.103.16a.63.63 0 0 1-.306.06c-.074 0-.14-.006-.198-.016a.991.991 0 0 1-.16-.04.77.77 0 0 1-.236-.129l-.182.295a.963.963 0 0 0 .205.119 1.425 1.425 0 0 0 .567.112c.129 0 .244-.014.346-.043a.778.778 0 0 0 .258-.121.513.513 0 0 0 .215-.423.43.43 0 0 0-.166-.36M18.554 19.934a.67.67 0 0 1 .053-.18.483.483 0 0 1 .097-.14c.04-.04.086-.07.14-.092a.51.51 0 0 1 .187-.032c.125 0 .227.04.306.117a.562.562 0 0 1 .15.327h-.933zm1.098-.53a.77.77 0 0 0-.269-.194.85.85 0 0 0-.344-.069.933.933 0 0 0-.363.069.818.818 0 0 0-.467.493 1.085 1.085 0 0 0-.066.385c0 .142.023.272.068.388a.843.843 0 0 0 .48.49.991.991 0 0 0 .372.068c.137 0 .267-.019.39-.056a.979.979 0 0 0 .35-.198l-.195-.28a.878.878 0 0 1-.25.14.785.785 0 0 1-.27.05.636.636 0 0 1-.184-.026.48.48 0 0 1-.282-.223.583.583 0 0 1-.07-.209h1.33a1.21 1.21 0 0 0 .007-.146c0-.14-.02-.269-.063-.384a.903.903 0 0 0-.174-.299zM24.85 20.317a.515.515 0 0 1-.503.347.507.507 0 0 1-.505-.353.66.66 0 0 1-.037-.223.66.66 0 0 1 .037-.224.507.507 0 0 1 .505-.353.517.517 0 0 1 .503.347c.027.07.04.147.04.23a.648.648 0 0 1-.04.229zm.016-.911a.703.703 0 0 0-.233-.192.711.711 0 0 0-.332-.073.882.882 0 0 0-.83.566c-.047.116-.07.243-.07.38 0 .138.023.265.07.38a.879.879 0 0 0 .83.566c.129.001.24-.023.332-.07a.694.694 0 0 0 .233-.192v.216h.392v-1.799h-.392v.218zM17.66 20.628a.529.529 0 0 1-.187.036.322.322 0 0 1-.111-.019.232.232 0 0 1-.09-.059.286.286 0 0 1-.062-.104.465.465 0 0 1-.022-.154v-.783h.63v-.357h-.63v-.544h-.394v.544h-.36v.357h.36v.79c0 .24.056.416.17.529.113.113.271.17.475.17a.847.847 0 0 0 .308-.053c.06-.023.115-.05.167-.078l-.134-.33c-.038.021-.078.04-.12.055M21.203 19.141c-.11 0-.21.02-.298.06-.09.04-.164.137-.224.223v-.236h-.356v1.8h.36v-.99c0-.077.01-.145.032-.205.021-.06.05-.11.088-.152a.364.364 0 0 1 .135-.094.455.455 0 0 1 .173-.032.767.767 0 0 1 .233.038l.116-.376a.719.719 0 0 0-.259-.036M26.659 19.141c-.11 0-.21.02-.299.06-.089.04-.163.137-.223.223v-.236h-.357v1.8h.36v-.99c0-.077.011-.145.032-.205.022-.06.051-.11.089-.152a.366.366 0 0 1 .135-.094.455.455 0 0 1 .173-.032.768.768 0 0 1 .232.038l.117-.376a.726.726 0 0 0-.26-.036M28.477 20.317a.515.515 0 0 1-.503.347.507.507 0 0 1-.505-.353.657.657 0 0 1-.038-.223c0-.08.012-.154.037-.224a.507.507 0 0 1 .505-.353.516.516 0 0 1 .503.347c.027.07.04.147.04.23a.648.648 0 0 1-.04.229zm.015-1.86v.949a.704.704 0 0 0-.233-.192.712.712 0 0 0-.332-.073.882.882 0 0 0-.83.566c-.047.116-.07.243-.07.38 0 .138.023.265.07.38a.878.878 0 0 0 1.162.495.695.695 0 0 0 .233-.19v.215h.392v-2.53h-.392zM22.143 19.672c.05-.051.109-.09.178-.119a.583.583 0 0 1 .223-.042c.088 0 .17.014.246.042a.59.59 0 0 1 .19.114l.19-.314a.966.966 0 0 0-.24-.14 1.014 1.014 0 0 0-.386-.072c-.139 0-.267.024-.386.073a.92.92 0 0 0-.508.499.952.952 0 0 0-.073.375.952.952 0 0 0 .275.675.93.93 0 0 0 .306.199c.119.048.247.072.386.072.14 0 .268-.024.386-.072a.963.963 0 0 0 .24-.14l-.19-.314a.59.59 0 0 1-.19.114.701.701 0 0 1-.246.042.586.586 0 0 1-.223-.042.527.527 0 0 1-.297-.3.615.615 0 0 1-.043-.234c0-.086.014-.163.043-.234a.551.551 0 0 1 .119-.182"/>
        </g>
        <path fill="#FFF" d="M16.41 10.78a6.766 6.766 0 0 1 2.575-5.316 6.78 6.78 0 1 0 0 10.631 6.766 6.766 0 0 1-2.575-5.316"/>
        <path stroke="#FFF" d="M16.41 10.78a6.766 6.766 0 0 0 2.575 5.315 6.765 6.765 0 0 0 2.574-5.316 6.765 6.765 0 0 0-2.574-5.315 6.766 6.766 0 0 0-2.575 5.315"/>
        <path fill="#FFF" d="M23.19 4a6.75 6.75 0 0 0-4.205 1.464 6.765 6.765 0 0 1 2.574 5.315 6.765 6.765 0 0 1-2.574 5.316A6.78 6.78 0 1 0 23.19 4"/>
    </g>
</svg>
