<svg xmlns="http://www.w3.org/2000/svg" width="38" height="24" viewBox="0 0 38 24">
    <g fill="none" fill-rule="evenodd">
        <rect width="38" height="24" fill="#A7AFC6" rx="2"/>
        <g fill="#FFF">
            <path d="M7.297 12.54c.301-.267.481-.697.481-1.125 0-.429-.18-.843-.48-1.11-.29-.262-.63-.362-1.193-.362h-.234v2.952h.234c.563 0 .917-.108 1.192-.356zM6.28 9.186c1.41 0 2.395.916 2.395 2.234 0 .657-.301 1.293-.81 1.714-.428.355-.917.515-1.592.515H5V9.187h1.28zM9.077 13.65h.87V9.187h-.87zM12.076 10.9c-.523-.194-.677-.322-.677-.562 0-.282.274-.496.65-.496.26 0 .475.107.703.361l.454-.595a1.95 1.95 0 0 0-1.312-.495c-.789 0-1.391.549-1.391 1.277 0 .617.28.93 1.097 1.226.342.12.515.2.603.255a.534.534 0 0 1 .26.46c0 .363-.287.63-.676.63-.415 0-.75-.207-.95-.595l-.561.542c.4.588.882.85 1.545.85.904 0 1.54-.603 1.54-1.466 0-.71-.294-1.031-1.285-1.393M13.635 11.42c0 1.314 1.03 2.33 2.356 2.33.375 0 .696-.073 1.091-.26v-1.024c-.348.348-.656.488-1.051.488-.877 0-1.5-.636-1.5-1.54 0-.856.643-1.532 1.46-1.532.414 0 .73.147 1.091.502V9.36c-.381-.194-.696-.274-1.071-.274-1.319 0-2.376 1.038-2.376 2.335M17.412 11.397c0-1.267 1.066-2.293 2.38-2.293 1.334 0 2.374 1.02 2.374 2.32 0 1.307-1.047 2.327-2.373 2.327-1.36 0-2.38-1.007-2.38-2.354zM24.136 12.185l-1.191-2.998h-.95l1.894 4.577h.468l1.928-4.577h-.943zM26.68 13.65h2.47v-.755h-1.6v-1.206h1.539v-.755H27.55v-.991h1.599v-.756h-2.47zM30.85 11.241h-.254V9.89h.267c.543 0 .838.228.838.663 0 .448-.295.69-.852.69m1.747-.738c0-.836-.575-1.317-1.58-1.317h-1.291v4.463h.87v-1.793h.115l1.204 1.793h1.07l-1.406-1.88c.657-.134 1.018-.583 1.018-1.266"/>
        </g>
    </g>
</svg>
