<svg xmlns="http://www.w3.org/2000/svg" width="38" height="24" viewBox="0 0 38 24">
    <g fill="none" fill-rule="evenodd">
        <rect width="38" height="24" fill="#A7AFC6" rx="2"/>
        <g fill="#FFF">
            <path d="M27.851 10.822c-.021-.51-.038-1.204-.003-1.624h-.028c-.116.343-.612 1.374-.83 1.88l-.707 1.516h1.665l-.097-1.772zm.218 4.078l-.052-1.028-2.37-.002-.486 1.03H23.1L26.837 8h2.53L30 14.9h-1.931zM20.313 14.9a5.916 5.916 0 0 1-2.963-.753l.935-1.293c.59.298 1.053.643 2.118.643.343 0 .673-.08.86-.375.273-.427-.063-.657-.83-1.05l-.379-.223c-1.137-.703-1.628-1.371-1.093-2.538C19.303 8.565 20.207 8 21.697 8c1.028 0 1.992.402 2.553.796l-1.075 1.141c-.548-.4-1.002-.604-1.522-.604-.415 0-.73.145-.838.34-.205.367.066.617.663.953l.451.26c1.38.788 1.71 1.614 1.364 2.387-.596 1.33-1.761 1.627-2.98 1.627M13.9 14.9L15.723 8h1.627l-1.823 6.9zM13.058 8l-1.716 2.926c-.437.766-.693 1.153-.816 1.637H10.5c.03-.614-.057-1.367-.065-1.793L10.245 8H7.033L7 8.186c.825 0 1.315.405 1.45 1.235l.625 5.479h1.977L15.05 8h-1.992z"/>
        </g>
    </g>
</svg>
