<svg xmlns="http://www.w3.org/2000/svg" width="69" height="24" viewBox="0 0 69 24">
    <g fill="none" fill-rule="evenodd">
        <path d="M0 0h24v24H0z"/>
        <path fill="#596383" stroke="#596383" stroke-linecap="round" stroke-linejoin="round" d="M19.39 13.579c.677-1.84 1.11-4.01 1.11-6.548 0-.005-.026-1.36-.32-2.716C19.885 2.96 19.3 1.5 19.3 1.5s-3.906 1.105-7.8 1.105C7.606 2.605 3.7 1.5 3.7 1.5s-.567 1.416-.871 2.815c-.304 1.4-.329 2.711-.329 2.711 0 11.606 9 15.474 9 15.474s1.131-.49 2.592-1.639a5 5 0 0 1 5.298-7.282z"/>
        <g stroke="#596383" stroke-linecap="round" stroke-linejoin="round" transform="translate(13 13)">
            <circle cx="5.5" cy="5.5" r="5"/>
            <path d="M3.5 4.5h4v3h-4zM6.5 4v-.5a1 1 0 1 0-2 0V4"/>
        </g>
        <path fill="#FFF" d="M9.114 9.613c0 .432-.157.772-.47 1.018-.312.246-.743.369-1.293.369-.55 0-1-.085-1.351-.256v-.752c.222.104.457.186.707.246.25.06.482.09.697.09.315 0 .547-.06.697-.18.15-.12.224-.28.224-.482a.605.605 0 0 0-.206-.462c-.137-.127-.421-.277-.852-.45-.443-.18-.756-.384-.938-.615a1.302 1.302 0 0 1-.272-.832c0-.405.144-.725.432-.958C6.777 6.116 7.164 6 7.65 6c.466 0 .93.102 1.39.306l-.252.649c-.433-.182-.819-.273-1.158-.273-.257 0-.452.056-.585.168a.552.552 0 0 0-.2.444c0 .126.027.235.08.324.053.09.14.175.263.255.122.08.341.185.658.316.357.149.62.287.785.416.167.128.289.274.366.436.078.161.117.352.117.572zm3.881 0c0 .432-.156.772-.469 1.018-.313.246-.744.369-1.294.369s-1-.085-1.35-.256v-.752c.221.104.457.186.706.246.25.06.482.09.697.09.315 0 .547-.06.697-.18.15-.12.225-.28.225-.482A.605.605 0 0 0 12 9.204c-.137-.127-.42-.277-.851-.45-.444-.18-.756-.384-.938-.615a1.302 1.302 0 0 1-.273-.832c0-.405.144-.725.432-.958.289-.233.676-.349 1.161-.349.466 0 .93.102 1.39.306l-.252.649c-.432-.182-.818-.273-1.158-.273-.257 0-.452.056-.585.168a.552.552 0 0 0-.2.444c0 .126.027.235.08.324.053.09.141.175.263.255.122.08.342.185.659.316.357.149.618.287.785.416.166.128.288.274.366.436.077.161.116.352.116.572zm1.077 1.32V6.07h.795v4.181h2.06v.682h-2.855z"/>
        <text fill="#596383" font-family="OpenSans-Extrabold, Open Sans" font-size="11" font-weight="600">
            <tspan x="27" y="16">SECURE</tspan>
        </text>
    </g>
</svg>
