<svg xmlns="http://www.w3.org/2000/svg" width="38" height="24" viewBox="0 0 38 24">
    <g fill="none" fill-rule="evenodd">
        <rect width="38" height="24" fill="#A7AFC6" rx="2"/>
        <g fill="#FFF" fill-rule="nonzero">
            <path d="M14.925 9.742h-1.764a.245.245 0 0 0-.243.207l-.714 4.525c-.014.09.055.17.146.17h.843c.12 0 .223-.088.242-.207l.192-1.22a.245.245 0 0 1 .242-.208h.56c1.162 0 1.833-.563 2.008-1.677.079-.488.003-.871-.225-1.14-.251-.294-.696-.45-1.287-.45zm.204 1.653c-.096.633-.58.633-1.048.633h-.267l.187-1.183a.147.147 0 0 1 .146-.124h.122c.318 0 .619 0 .774.182.093.108.121.27.086.492zM20.201 11.374h-.845a.147.147 0 0 0-.145.124l-.038.237-.059-.086c-.183-.266-.59-.354-.998-.354-.934 0-1.732.707-1.887 1.7-.08.494.034.968.315 1.298.257.303.626.43 1.064.43.753 0 1.17-.484 1.17-.484l-.038.235c-.014.09.055.17.145.17h.762a.245.245 0 0 0 .242-.207l.457-2.893a.146.146 0 0 0-.145-.17zm-1.178 1.645a.942.942 0 0 1-.954.807c-.245 0-.441-.079-.567-.228-.125-.148-.172-.359-.133-.594a.946.946 0 0 1 .947-.813c.24 0 .435.08.564.23.129.152.18.364.143.598zM24.702 11.374h-.85a.246.246 0 0 0-.202.108l-1.172 1.725-.496-1.658a.246.246 0 0 0-.235-.175h-.835c-.101 0-.172.1-.14.195l.936 2.745-.88 1.242c-.069.097 0 .232.12.232h.849c.08 0 .156-.04.201-.105l2.825-4.078a.147.147 0 0 0-.12-.23zM27.514 9.742H25.75a.245.245 0 0 0-.242.207l-.714 4.525c-.014.09.055.17.145.17h.906a.172.172 0 0 0 .17-.145l.202-1.283a.245.245 0 0 1 .242-.207h.558c1.163 0 1.834-.563 2.01-1.677.079-.488.002-.871-.226-1.14-.25-.294-.695-.45-1.286-.45zm.204 1.653c-.097.633-.58.633-1.049.633h-.266l.187-1.183a.147.147 0 0 1 .145-.124h.123c.318 0 .619 0 .774.182.093.108.121.27.086.492zM32.79 11.374h-.845a.146.146 0 0 0-.145.124l-.038.237-.059-.086c-.183-.266-.59-.354-.998-.354-.934 0-1.731.707-1.887 1.7-.08.494.034.968.315 1.298.258.303.626.43 1.064.43.753 0 1.17-.484 1.17-.484l-.037.235c-.015.09.055.17.145.17h.761c.12 0 .223-.088.242-.207l.457-2.893a.147.147 0 0 0-.146-.17zM31.61 13.02a.942.942 0 0 1-.953.807c-.245 0-.442-.079-.568-.228-.125-.148-.172-.359-.132-.594a.946.946 0 0 1 .947-.813c.24 0 .435.08.563.23.13.152.18.364.143.598zM33.786 9.866l-.725 4.608c-.014.09.055.17.145.17h.729a.245.245 0 0 0 .242-.207l.714-4.526a.147.147 0 0 0-.145-.17h-.815a.147.147 0 0 0-.145.125zM4.875 15.524l.135-.858-.3-.007H3.273l.997-6.326a.081.081 0 0 1 .081-.07l2.421.001c.804 0 1.358.167 1.648.498.136.154.222.316.264.494.044.187.045.41.002.683l-.003.02v.174l.135.077c.115.06.206.13.275.21.116.132.191.3.223.5.033.205.022.449-.032.725a2.555 2.555 0 0 1-.297.822 1.69 1.69 0 0 1-.47.516 1.91 1.91 0 0 1-.635.286c-.234.06-.5.092-.793.092h-.188a.571.571 0 0 0-.56.478l-.015.077-.238 1.51-.011.056c-.003.018-.008.027-.015.033a.04.04 0 0 1-.025.009H4.875z"/>
            <path d="M8.948 9.979a4.233 4.233 0 0 1-.025.142c-.32 1.638-1.411 2.205-2.806 2.205h-.71a.345.345 0 0 0-.341.292l-.364 2.306-.103.654c-.017.11.068.21.18.21h1.26c.148 0 .275-.109.299-.256l.012-.064.237-1.505.015-.082a.303.303 0 0 1 .3-.256h.188c1.22 0 2.176-.496 2.455-1.93.117-.599.056-1.099-.252-1.45a1.204 1.204 0 0 0-.345-.266z"/>
            <path d="M8.614 9.845a2.518 2.518 0 0 0-.31-.068 3.944 3.944 0 0 0-.627-.046H5.78a.301.301 0 0 0-.299.256l-.404 2.556-.011.075a.345.345 0 0 1 .34-.292h.71c1.396 0 2.488-.567 2.807-2.205.01-.049.018-.096.025-.142a1.702 1.702 0 0 0-.334-.134z"/>
            <path d="M5.481 9.987a.302.302 0 0 1 .3-.256h1.896a3.944 3.944 0 0 1 .786.076 2.518 2.518 0 0 1 .223.06c.094.032.181.069.262.112.095-.606 0-1.018-.328-1.392C8.259 8.176 7.607 8 6.773 8h-2.42a.346.346 0 0 0-.342.292l-1.008 6.391c-.02.127.077.24.205.24h1.494l.375-2.38.404-2.556z"/>
        </g>
    </g>
</svg>
