<svg xmlns="http://www.w3.org/2000/svg" width="38" height="24" viewBox="0 0 38 24">
    <g fill="none" fill-rule="evenodd">
        <rect width="38" height="24" fill="#A7AFC6" rx="2"/>
        <path fill="#FFF" d="M6.389 8.823l.538-1.271.527 1.271H6.389zm12.664-.515c-.12.072-.227.072-.383.072h-.946v-.708h.946c.132 0 .287 0 .383.048.096.06.144.156.144.3 0 .132-.048.252-.144.288zm6.655.515l-.526-1.271-.527 1.271h1.053zM13.271 7h-1.256l-.946 2.183L10.064 7H8.83v3.035L7.514 7H6.377L5 10.215h.826l.287-.708H7.73l.287.708h1.568v-2.52l1.126 2.52h.658l1.126-2.52v2.52h.777V7zm3.149 2.555h-1.796v-.647h1.772v-.66h-1.772v-.576h1.796V7h-2.574v3.215h2.574v-.66zm3.232-2.41C19.4 7 19.125 7 18.73 7h-1.76v3.215h.754V9.05h.826c.276 0 .455.024.575.132.132.168.108.444.108.624v.408h.79v-.636c0-.276-.024-.42-.144-.576a.938.938 0 0 0-.37-.275.909.909 0 0 0 .55-.852c0-.372-.156-.576-.407-.732zm.85 3.07h.778V7h-.778v3.215zm9.887 0h-1.101l-1.449-2.411v2.41h-1.556l-.3-.707H24.38l-.3.708h-.897c-.371 0-.85-.084-1.125-.36-.252-.276-.396-.648-.396-1.224.013-.48.073-.911.42-1.26.227-.25.646-.371 1.173-.371h.73v.696h-.73c-.275 0-.443.048-.599.18-.143.143-.203.396-.203.731 0 .348.06.6.203.768.108.108.324.156.527.156h.347L24.632 7h1.137l1.292 3.035V7h1.186l1.352 2.231V7h.79v3.215zm-16.615 4.882h-1.903v-.648h1.7V13.8h-1.7v-.587h1.927l.85.935-.874.948zm1.868-.948l1.185-1.26v2.592l-1.185-1.332zm2.956-.12h-1.017v-.815h1.017c.276 0 .455.108.455.384 0 .275-.18.431-.455.431zm3.735-.156c-.12.048-.228.048-.37.048l-.934.024v-.731h.933c.143 0 .275 0 .371.06.096.048.156.144.156.276 0 .144-.06.251-.156.323zm-3.735-1.331h-2.453l-.994 1.056-.934-1.056h-3.1v3.215h3.052l.982-1.056.946 1.056h1.484v-1.08h.97c.658 0 1.328-.18 1.328-1.08 0-.875-.682-1.055-1.28-1.055zm4.358.156c-.252-.132-.55-.156-.946-.156h-1.76v3.215h.779V14.58h.826c.275 0 .43.024.55.144.132.156.132.432.132.648v.384h.766v-.624c0-.288-.024-.432-.12-.588a.795.795 0 0 0-.395-.276c.215-.072.55-.348.55-.851 0-.372-.131-.576-.382-.72zm3.387 2.399h-1.807v-.648h1.771V13.8h-1.771v-.587h1.807v-.672h-2.561v3.215h2.561v-.66zm2.945-1.044c-.192-.155-.467-.252-.898-.252h-.419c-.108 0-.204-.024-.299-.048a.239.239 0 0 1-.156-.228c0-.107.024-.18.12-.251.06-.048.155-.048.3-.048h1.412v-.684h-1.533c-.825 0-1.1.504-1.1.96 0 1.02.897.971 1.603.995.144 0 .228.024.276.072.047.036.096.132.096.228a.301.301 0 0 1-.096.204.502.502 0 0 1-.3.072H26.81v.684h1.484c.778 0 1.221-.324 1.221-1.008 0-.324-.096-.528-.227-.696zm3.232.696c0 .684-.443 1.008-1.22 1.008h-1.485v-.684h1.484c.143 0 .251-.024.3-.072a.3.3 0 0 0 .095-.204c0-.096-.048-.192-.096-.228-.048-.048-.132-.072-.275-.072-.706-.024-1.604.024-1.604-.995 0-.456.3-.96 1.101-.96h1.532v.684H30.94c-.144 0-.24 0-.3.048-.071.071-.12.144-.12.251 0 .12.073.193.156.228.096.024.192.048.3.048h.418c.432 0 .707.097.899.252.131.168.227.372.227.696z"/>
    </g>
</svg>
