<?xml version="1.0" encoding="UTF-8"?>
<svg width="266px" height="24px" viewBox="0 0 266 24" version="1.1" xmlns="http://www.w3.org/2000/svg" xmlns:xlink="http://www.w3.org/1999/xlink">
    <!-- Generator: Sketch 46.2 (44496) - http://www.bohemiancoding.com/sketch -->
    <title>SAL/EMS</title>
    <desc>Created with Sketch.</desc>
    <defs></defs>
    <g id="Symbols" stroke="none" stroke-width="1" fill="none" fill-rule="evenodd">
        <g id="_components/shipping_methods" transform="translate(-406.000000, -63.000000)" fill="#596383">
            <g id="SAL/EMS">
                <path d="M541.395249,84.309 C542.419249,85.077 544.563249,85.845 547.571249,85.845 C552.371249,85.845 556.339249,83.381 556.339249,78.581 C556.339249,76.021 554.675249,74.261 552.051249,72.885 C550.227249,71.861 548.915249,71.093 548.915249,69.845 C548.915249,68.661 550.035249,67.573 552.179249,67.573 C553.971249,67.541 555.507249,68.149 556.211249,68.533 L557.651249,64.693 C556.723249,64.181 555.187249,63.605 552.563249,63.605 C547.859249,63.605 544.051249,66.261 544.051249,70.613 C544.051249,73.429 546.227249,75.093 548.531249,76.341 C550.515249,77.365 551.443249,78.165 551.443249,79.381 C551.443249,81.077 549.811249,81.909 548.019249,81.909 C546.035249,81.909 544.211249,81.301 542.931249,80.533 L541.395249,84.309 Z M571.745795,79.925 L565.537795,79.925 L562.977795,85.525 L558.081795,85.525 L568.577795,63.957 L574.497795,63.957 L577.025795,85.525 L572.193795,85.525 L571.745795,79.925 Z M566.881795,76.405 L571.553795,76.405 L571.137795,71.765 C571.041795,70.581 570.913795,68.853 570.817795,67.541 L570.753795,67.541 C570.209795,68.853 569.601795,70.517 569.025795,71.765 L566.881795,76.405 Z M580.81634,85.525 L593.71234,85.525 L594.48034,81.493 L586.19234,81.493 L589.52034,63.957 L584.91234,63.957 L580.81634,85.525 Z M599.230886,86.805 L595.966886,86.805 L607.102886,63.605 L610.366886,63.605 L599.230886,86.805 Z M624.493431,72.501 L623.757431,76.373 L616.077431,76.373 L615.085431,81.589 L623.693431,81.589 L622.957431,85.525 L609.741431,85.525 L613.837431,63.957 L626.605431,63.957 L625.837431,67.893 L617.709431,67.893 L616.813431,72.501 L624.493431,72.501 Z M650.235977,85.525 L653.147977,63.957 L646.907977,63.957 L642.907977,72.149 C641.979977,74.101 640.827977,76.629 639.995977,79.029 L639.867977,79.029 C639.835977,76.629 639.611977,74.165 639.483977,72.149 L638.811977,63.957 L632.635977,63.957 L627.227977,85.525 L631.451977,85.525 L633.595977,76.629 C634.139977,74.293 634.779977,71.061 635.387977,68.213 L635.451977,68.213 C635.579977,71.093 635.739977,74.069 635.931977,76.437 L636.699977,85.173 L640.283977,85.173 L644.699977,76.341 C645.883977,73.973 647.227977,70.997 648.411977,68.213 L648.507977,68.213 C647.899977,71.317 647.419977,74.293 647.067977,76.629 L645.755977,85.525 L650.235977,85.525 Z M654.858522,84.309 C655.882522,85.077 658.026522,85.845 661.034522,85.845 C665.834522,85.845 669.802522,83.381 669.802522,78.581 C669.802522,76.021 668.138522,74.261 665.514522,72.885 C663.690522,71.861 662.378522,71.093 662.378522,69.845 C662.378522,68.661 663.498522,67.573 665.642522,67.573 C667.434522,67.541 668.970522,68.149 669.674522,68.533 L671.114522,64.693 C670.186522,64.181 668.650522,63.605 666.026522,63.605 C661.322522,63.605 657.514522,66.261 657.514522,70.613 C657.514522,73.429 659.690522,75.093 661.994522,76.341 C663.978522,77.365 664.906522,78.165 664.906522,79.381 C664.906522,81.077 663.274522,81.909 661.482522,81.909 C659.498522,81.909 657.674522,81.301 656.394522,80.533 L654.858522,84.309 Z M420.091,79.83 L413.689,79.83 L411.049,85.605 L406,85.605 L416.824,63.363 L422.929,63.363 L425.536,85.605 L420.553,85.605 L420.091,79.83 Z M415.075,76.2 L419.893,76.2 L419.464,71.415 C419.365,70.194 419.233,68.412 419.134,67.059 L419.068,67.059 C418.507,68.412 417.88,70.128 417.286,71.415 L415.075,76.2 Z M432.07,63.363 L427.846,85.605 L432.598,85.605 L436.822,63.363 L432.07,63.363 Z M436.987,85.605 L441.178,63.792 C442.663,63.429 444.907,63.198 447.118,63.198 C449.23,63.198 451.408,63.528 452.959,64.485 C454.411,65.343 455.434,66.762 455.434,68.841 C455.434,72.141 453.223,74.187 450.385,75.111 L450.385,75.243 C451.705,75.804 452.266,77.289 452.497,79.302 C452.761,81.777 452.959,84.681 453.355,85.605 L448.471,85.605 C448.273,85.011 448.042,83.097 447.811,80.358 C447.613,77.652 446.689,76.827 444.808,76.827 L443.356,76.827 L441.706,85.605 L436.987,85.605 Z M445.237,67.125 L444.049,73.263 L446.029,73.263 C448.603,73.263 450.484,71.712 450.484,69.534 C450.484,67.752 448.966,66.96 447.085,66.96 C446.194,66.96 445.633,67.026 445.237,67.125 Z M479.425,85.605 L474.805,85.605 L476.158,76.431 C476.521,74.022 477.016,70.953 477.643,67.752 L477.544,67.752 C476.323,70.623 474.937,73.692 473.716,76.134 L469.162,85.242 L465.466,85.242 L464.674,76.233 C464.476,73.791 464.311,70.722 464.179,67.752 L464.113,67.752 C463.486,70.689 462.826,74.022 462.265,76.431 L460.054,85.605 L455.698,85.605 L461.275,63.363 L467.644,63.363 L468.337,71.811 C468.469,73.89 468.7,76.431 468.733,78.906 L468.865,78.906 C469.723,76.431 470.911,73.824 471.868,71.811 L475.993,63.363 L482.428,63.363 L479.425,85.605 Z M495.859,79.83 L489.457,79.83 L486.817,85.605 L481.768,85.605 L492.592,63.363 L498.697,63.363 L501.304,85.605 L496.321,85.605 L495.859,79.83 Z M490.843,76.2 L495.661,76.2 L495.232,71.415 C495.133,70.194 495.001,68.412 494.902,67.059 L494.836,67.059 C494.275,68.412 493.648,70.128 493.054,71.415 L490.843,76.2 Z M507.838,63.363 L503.614,85.605 L508.366,85.605 L512.59,63.363 L507.838,63.363 Z M512.755,85.605 L526.054,85.605 L526.846,81.447 L518.299,81.447 L521.731,63.363 L516.979,63.363 L512.755,85.605 Z M530.245,86.925 L541.729,63 L538.363,63 L526.879,86.925 L530.245,86.925 Z"></path>
            </g>
        </g>
    </g>
</svg>