<?xml version="1.0" encoding="UTF-8"?>
<svg width="101px" height="28px" viewBox="0 0 101 28" version="1.1" xmlns="http://www.w3.org/2000/svg" xmlns:xlink="http://www.w3.org/1999/xlink">
    <!-- Generator: Sketch 46.2 (44496) - http://www.bohemiancoding.com/sketch -->
    <title>FedEx_logo_gray</title>
    <desc>Created with Sketch.</desc>
    <defs></defs>
    <g id="Symbols" stroke="none" stroke-width="1" fill="none" fill-rule="evenodd">
        <g id="_components/shipping_methods" transform="translate(-749.000000, -60.000000)" fill-rule="nonzero" fill="#596383">
            <g id="FedEx_logo_gray">
                <g transform="translate(749.000000, 60.000000)">
                    <path d="M99.6847741,24.180537 C99.6847741,22.6376776 98.5898016,21.505796 97.0789414,21.505796 C95.5704796,21.505796 94.4729984,22.6376776 94.4729984,24.180537 C94.4729984,25.7233964 95.5704796,26.8539006 97.0789414,26.8539006 C98.5898016,26.8539006 99.6847741,25.7233964 99.6847741,24.180537 L99.6847741,24.180537 L99.6847741,24.180537 Z M96.3948222,24.3168602 L96.3948222,26.0664642 L95.8288828,26.0664642 L95.8288828,22.2080586 L97.2339172,22.2080586 C98.0557398,22.2080586 98.4347099,22.5687636 98.4347099,23.2710263 C98.4347099,23.7007725 98.1419147,24.0437131 97.7654562,24.0929762 L97.7654562,24.1116428 C98.0902562,24.1632731 98.2108259,24.4547079 98.2797455,24.9862582 C98.331322,25.3283164 98.4003123,25.9286533 98.5208877,26.0664897 L97.8515067,26.0664897 C97.6965366,25.7062881 97.7138032,25.1918715 97.5932307,24.76376 C97.4923147,24.4374525 97.3200836,24.31688 96.9435091,24.31688 L96.3948222,24.31688 L96.3948222,24.31688 L96.3948222,24.3168602 Z M97.096078,23.8198319 C97.6448836,23.8198319 97.7998481,23.5284198 97.7998481,23.2710263 C97.7998481,22.9634873 97.6448836,22.7238554 97.096078,22.7238554 L96.3948222,22.7238554 L96.3948222,23.8198319 L97.096078,23.8198319 L97.096078,23.8198319 Z M93.8553919,24.180537 C93.8553919,22.2769725 95.3662465,20.9915067 97.0789414,20.9915067 C98.7940347,20.9915067 100.302369,22.2769725 100.302369,24.180537 C100.302369,26.0837253 98.7940347,27.3696945 97.0789414,27.3696945 C95.3662465,27.3696945 93.8553919,26.0837253 93.8553919,24.180537 L93.8553919,24.180537 L93.8553919,24.180537 Z" id="path14"></path>
                    <polyline id="path16" points="82.6861071 26.8144602 78.9694352 22.6459927 75.286779 26.8144602 67.5394703 26.8144602 75.113541 18.3044174 67.5394703 9.79273697 75.5303168 9.79273697 79.2820085 13.9266824 82.8943648 9.79273697 90.607143 9.79273697 83.0689859 18.2693976 90.7105875 26.8144602 82.6861071 26.8144602"></polyline>
                    <polyline id="path18" points="52.6555273 26.8144602 52.6555273 0 67.5394703 0 67.5394703 5.97716848 58.9598828 5.97716848 58.9598828 9.79273697 67.5394703 9.79273697 67.5394703 15.5433713 58.9598828 15.5433713 58.9598828 20.8216768 67.5394703 20.8216768 67.5394703 26.8144602 52.6555273 26.8144602"></polyline>
                    <path d="M46.3772485,0 L46.3772485,10.9738844 L46.3083402,10.9738844 C44.9180554,9.37634586 43.1812945,8.82073535 41.166358,8.82073535 C37.0388356,8.82073535 33.9294327,11.6270113 32.8383689,15.3367539 C31.5932174,11.2494214 28.3830202,8.74450747 23.6234162,8.74450747 C19.7576994,8.74450747 16.7058747,10.4792545 15.1123665,13.3066917 L15.1123665,9.79273697 L7.12240242,9.79273697 L7.12240242,5.97716848 L15.842219,5.97716848 L15.842219,0 L0,0 L0,26.8144602 L7.12240242,26.8144602 L7.12240242,15.5433713 L14.221497,15.5433713 C14.0099612,16.3712436 13.896697,17.2580828 13.896697,18.1936731 C13.896697,23.786823 18.1699891,27.7116311 23.6234162,27.7116311 C28.2087782,27.7116311 31.2315026,25.5586036 32.8295503,21.6336739 L26.7258954,21.6336739 C25.9001584,22.8134327 25.2741152,23.1627992 23.6234105,23.1627992 C21.7095143,23.1627992 20.0588097,21.4934477 20.0588097,19.5135366 L32.4874808,19.5135366 C33.0263394,23.9566586 36.4876259,27.7879778 41.2367794,27.7879778 C43.2851095,27.7879778 45.1615875,26.7805717 46.3083345,25.0787119 L46.3772457,25.0787119 L46.3772457,26.8144602 L52.6555216,26.8144602 L52.6555216,8.03846327e-15 L46.3772457,8.03846327e-15 L46.3772485,0 Z M20.2572392,15.6231261 C20.6533487,13.9203867 21.974219,12.8071463 23.6234105,12.8071463 C25.4389079,12.8071463 26.6924962,13.8858618 27.0222117,15.6231261 C27.1614283,15.6231261 20.2572392,15.6231261 20.2572392,15.6231261 Z M42.5665927,22.7321705 C40.2525539,22.7321705 38.8140129,20.5756218 38.8140129,18.3240768 C38.8140129,15.9174315 40.0654574,13.6028921 42.5665927,13.6028921 C45.1607022,13.6028921 46.1936873,15.9174315 46.1936873,18.3240768 C46.1936873,20.6061079 45.0985903,22.7321705 42.5665927,22.7321705 L42.5665927,22.7321705 Z" id="path20"></path>
                </g>
            </g>
        </g>
    </g>
</svg>