<?xml version="1.0" encoding="UTF-8"?>
<svg width="153px" height="32px" viewBox="0 0 153 32" version="1.1" xmlns="http://www.w3.org/2000/svg" xmlns:xlink="http://www.w3.org/1999/xlink">
    <!-- Generator: Sketch 46.2 (44496) - http://www.bohemiancoding.com/sketch -->
    <title>Japan_Post_Service_Logo</title>
    <desc>Created with Sketch.</desc>
    <defs></defs>
    <g id="Symbols" stroke="none" stroke-width="1" fill="none" fill-rule="evenodd">
        <g id="_components/shipping_methods" transform="translate(-174.000000, -60.000000)">
            <g id="Japan_Post_Service_Logo">
                <g transform="translate(174.000000, 60.000000)">
                    <g id="shape18-2" transform="translate(1.729730, 0.000000)" fill-rule="nonzero" fill="#596383">
                        <path d="M36.9506369,6.69802393 C36.6798966,8.65176783 35.1709706,9.54016837 32.5032761,9.53648206 L28.9547732,9.53648206 L30.1424207,3.73054497 L33.763121,3.73054497 C36.4633043,3.73054497 37.1636193,5.11291094 36.9506369,6.69802393 L36.9506369,6.69802393 Z M35.2792667,0.364944617 L25.6806204,0.364944617 L22.8216028,14.446646 C21.8324982,19.3162605 18.8002068,20.5917235 15.1289683,20.5917235 C11.7934477,20.5917235 8.6239812,18.8038635 9.44342186,14.446646 C9.62391539,13.5029508 9.69250294,13.1453788 9.84772738,12.3417634 L14.1687427,12.3417634 C14.0821058,12.7620027 13.9232714,13.4660877 13.7175088,14.446646 C13.4106698,15.9396012 14.0496169,16.8832964 15.6812785,16.8832964 C17.3093302,16.8832964 18.1468202,15.9912096 18.4500494,14.446646 L21.3162867,0.364944617 L11.2411375,0.364944617 C5.83716099,0.364944617 4.20910928,1.74362428 3.23444418,6.5690031 L0,22.4275055 L19.4969119,22.4275055 C24.3016498,22.4275055 26.9115864,19.6111653 27.5938519,16.2197607 C28.2580682,12.9536907 28.261678,12.9536907 28.261678,12.9536907 L33.0158778,12.9536907 C37.8314454,12.9536907 40.7301716,10.8893576 41.4124371,6.69802393 C42.0477744,2.79422242 39.2826134,0.364944617 35.2792667,0.364944617 Z" id="Shape"></path>
                    </g>
                    <g id="shape19-4" transform="translate(0.000000, 25.945946)" fill-rule="nonzero" fill="#596383">
                        <path d="M2.10532819,2.92864865 L2.50563707,2.92864865 C3.09127413,2.92864865 3.62872587,2.72054054 3.62131274,2.04324324 C3.61760618,1.49459459 3.24694981,1.38486486 2.85034749,1.38486486 L2.41297297,1.38486486 L2.10532819,2.92864865 Z M1.16015444,0.31027027 L2.64277992,0.31027027 C3.86223938,0.31027027 5.09281853,0.438918919 5.10393822,1.86918919 C5.11505792,3.28810811 3.98455598,4.00702703 2.64648649,4.00702703 L1.88664093,4.00702703 L1.48633205,5.99351351 L0,5.99351351 L1.16015444,0.31027027 Z" id="Shape"></path>
                    </g>
                    <g id="shape20-6" transform="translate(11.243243, 25.945946)" fill-rule="nonzero" fill="#596383">
                        <path d="M3.22378378,1.23351351 C2.04702703,1.23351351 1.57027027,2.59567568 1.57405405,3.55675676 C1.58162162,4.27189189 1.85405405,4.86594595 2.64486486,4.86594595 C3.81783784,4.86594595 4.29459459,3.50756757 4.29081081,2.55405405 C4.28324324,1.83513514 4.01081081,1.23351351 3.22378378,1.23351351 Z M2.55783784,5.99351351 C0.707567568,5.99351351 0.0189189189,4.83945946 0.0151351351,3.67405405 C1.38777878e-17,1.52108108 1.12,0.113513514 3.31081081,0.113513514 C5.1572973,0.113513514 5.83837838,1.26 5.84972973,2.42918919 C5.86486486,4.58216216 4.74108108,5.99351351 2.55783784,5.99351351 Z" id="Shape"></path>
                    </g>
                    <g id="shape21-8" transform="translate(24.216216, 25.945946)" fill-rule="nonzero" fill="#596383">
                        <path d="M4.54795367,1.49459459 C4.26254826,1.36216216 3.86965251,1.23351351 3.31737452,1.23351351 C2.73173745,1.23351351 2.25359073,1.32054054 2.25359073,1.77837838 C2.26100386,2.58432432 4.4219305,2.28540541 4.42934363,4.01459459 C4.43675676,5.58108108 3.01714286,5.99351351 1.72355212,5.99351351 C1.14532819,5.99351351 0.485559846,5.84972973 0,5.69459459 L0.341003861,4.54432432 C0.637528958,4.73351351 1.22687259,4.86594595 1.716139,4.86594595 C2.17945946,4.86594595 2.90594595,4.77513514 2.90223938,4.19243243 C2.89853282,3.27675676 0.73019305,3.6172973 0.722779923,2.01297297 C0.715366795,0.552432432 1.97189189,0.113513514 3.19135135,0.113513514 C3.8807722,0.113513514 4.52200772,0.185405405 4.90007722,0.367027027 L4.54795367,1.49459459 Z" id="Shape"></path>
                    </g>
                    <g id="shape22-10" transform="translate(35.459459, 25.945946)" fill-rule="nonzero" fill="#596383">
                        <polygon id="Shape" points="1.72281081 1.43027027 0 1.43027027 0.214486486 0.31027027 4.8812973 0.31027027 4.66681081 1.43027027 3.12735135 1.43027027 2.27286486 5.99351351 0.864864865 5.99351351"></polygon>
                    </g>
                    <g id="shape23-12" transform="translate(78.702703, 4.324324)" fill-rule="nonzero" fill="#596383">
                        <path d="M15.682471,6.45081081 L22.7805405,6.45081081 L22.7805405,4.30175676 L13.1249421,4.30175676 L13.1249421,0.0693243243 L9.99660232,0.0693243243 L9.99660232,4.30175676 L0.355830116,4.30175676 L0.355830116,6.45081081 L6.75706564,6.45081081 C5.53389961,11.0663514 3.05050193,14.8463514 0,17.1595946 L0,19.6552703 C4.7592278,17.1486486 8.15073359,13.0658108 9.90764479,6.45081081 L9.99660232,6.45081081 L9.99660232,16.8093243 L5.1780695,16.8093243 L5.1780695,18.9583784 L9.99660232,18.9583784 L9.99660232,23.292973 L13.1249421,23.292973 L13.1249421,18.9583784 L17.9434749,18.9583784 L17.9434749,16.8093243 L13.1249421,16.8093243 L13.1249421,6.45081081 L13.32139,6.45081081 C15.070888,13.0913514 18.4586873,17.4843243 23.1178378,19.7209459 L23.1178378,16.4371622 C20.1748263,14.652973 17.2837066,11.5333784 15.682471,6.45081081 Z" id="Shape"></path>
                    </g>
                    <g id="shape24-14" transform="translate(57.081081, 5.189189)" fill-rule="nonzero" fill="#596383">
                        <path d="M15.8462825,10.1631546 L3.0263743,10.1631546 L3.0263743,2.54355339 L15.8462825,2.54355339 L15.8462825,10.1631546 Z M15.8462825,20.2599557 L3.0263743,20.2599557 L3.0263743,12.3343908 L15.8462825,12.3343908 L15.8462825,20.2599557 Z M18.8762468,0.364944617 L0,0.364944617 L0,22.4275055 L18.8762468,22.4275055 L18.8762468,0.364944617 Z" id="Shape"></path>
                    </g>
                    <g id="shape25-16" transform="translate(128.864865, 4.324324)" fill-rule="nonzero" fill="#596383">
                        <path d="M6.74048364,0.163088803 L3.86731152,0.163088803 C3.30651494,5.61544402 1.83169275,9.02177606 0,10.704556 L0,13.1323552 C1.00870555,12.6171429 1.88995733,11.9684942 2.66560455,11.1752896 L2.66560455,23.2920463 L5.38583215,23.2920463 L5.38583215,6.52355212 C6.00125178,4.77405405 6.44187767,2.676139 6.74048364,0.163088803 Z" id="Shape"></path>
                    </g>
                    <g id="shape26-18" transform="translate(135.783784, 5.189189)" fill-rule="nonzero" fill="#596383">
                        <path d="M3.5919494,10.823004 L7.11029327,10.823004 L7.11029327,13.4882056 L3.5919494,13.4882056 L3.5919494,10.823004 Z M3.5919494,6.27778467 L7.11029327,6.27778467 L7.11029327,8.94667257 L3.5919494,8.94667257 L3.5919494,6.27778467 Z M9.90730305,6.27778467 L13.4624497,6.27778467 L13.4624497,8.94667257 L9.90730305,8.94667257 L9.90730305,6.27778467 Z M13.4624497,13.4882056 L9.90730305,13.4882056 L9.90730305,10.823004 L13.4624497,10.823004 L13.4624497,13.4882056 Z M17.0654399,19.7106956 C13.5360552,19.6848914 10.6912018,19.3383784 8.46463485,18.7301374 C9.14180564,17.8601684 9.60184014,16.7763934 9.79689477,15.4308906 L16.119609,15.4308906 L16.119609,4.33509969 L9.90730305,4.33509969 L9.90730305,2.26708019 L16.5391604,2.26708019 L16.5391604,0.287532122 L0.920069005,0.287532122 L0.920069005,2.26708019 L7.11029327,2.26708019 L7.11029327,4.33509969 L0.934790109,4.33509969 L0.934790109,15.4308906 L6.97780334,15.4308906 C6.79010926,16.3229774 6.39631972,17.104475 5.80379528,17.7753833 C4.79907993,17.2851041 4.00046003,16.7210988 3.40057504,16.0907399 L1.29913744,16.0907399 C2.01679126,17.2556136 2.95894192,18.2693487 4.13663025,19.1061409 C3.05094882,19.7291272 1.66348476,20.1825432 0,20.4553301 L0,22.4275055 C2.61299597,21.9888347 4.82116159,21.4137705 6.48096607,20.4258396 C9.21173088,21.646008 12.7521564,22.2689942 17.0654399,22.2689942 L17.0654399,19.7106956 Z" id="Shape"></path>
                    </g>
                    <g id="shape27-20" transform="translate(104.648649, 5.189189)">
                        <path d="M8.16058437,6.87711712 L9.79494522,6.87711712 L9.79494522,9.76663063 L8.16058437,9.76663063 L8.16058437,6.87711712 Z M9.79494522,14.9385225 L8.16058437,14.9385225 L8.16058437,11.8129009 L9.79494522,11.8129009 L9.79494522,14.9385225 Z M5.46033601,14.9385225 L3.78483565,14.9385225 L3.78483565,11.8129009 L5.46033601,11.8129009 L5.46033601,14.9385225 Z M3.78483565,6.87711712 L5.46033601,6.87711712 L5.46033601,9.76663063 L3.78483565,9.76663063 L3.78483565,6.87711712 Z M13.6882396,0.198630631 L9.62290723,0.198630631 C8.41864134,1.12807207 6.57484295,1.39041441 0.785390796,1.39041441 L0.785390796,3.26054054 C2.61048941,3.26054054 4.1476114,3.2418018 5.46033601,3.19308108 L5.46033601,4.93953153 L0.392695398,4.93953153 L0.392695398,6.87711712 L1.43240321,6.87711712 L1.43240321,9.76663063 L0,9.76663063 L0,11.8129009 L1.43240321,11.8129009 L1.43240321,14.9385225 L0.392695398,14.9385225 L0.392695398,16.8761081 L5.46033601,16.8761081 L5.46033601,19.4395676 C3.78483565,19.581982 2.07941563,19.6831712 0.377735573,19.7393874 L0.377735573,22.4265225 C5.3331775,22.018018 9.52566837,21.4371171 13.2693645,20.6800721 L13.2693645,18.5925766 C11.6611833,18.8099459 9.94080351,19.0123243 8.16058437,19.195964 L8.16058437,16.8761081 L13.1870855,16.8761081 L13.1870855,14.9385225 L12.1361578,14.9385225 L12.1361578,11.8129009 L13.5274215,11.8129009 L13.5274215,9.76663063 L12.1361578,9.76663063 L12.1361578,6.87711712 L13.1870855,6.87711712 L13.1870855,4.93953153 L8.16058437,4.93953153 L8.16058437,3.00194595 C11.3208473,2.65715315 12.5550329,1.86637838 13.6882396,0.198630631 L13.6882396,0.198630631 Z" id="Shape" fill="#596383" fill-rule="nonzero"></path>
                        <path d="M8.16058437,6.87711712 L9.79494522,6.87711712 L9.79494522,9.76663063 L8.16058437,9.76663063 L8.16058437,6.87711712 M9.79494522,14.9385225 L8.16058437,14.9385225 L8.16058437,11.8129009 L9.79494522,11.8129009 L9.79494522,14.9385225 M5.46033601,14.9385225 L3.78483565,14.9385225 L3.78483565,11.8129009 L5.46033601,11.8129009 L5.46033601,14.9385225 M3.78483565,6.87711712 L5.46033601,6.87711712 L5.46033601,9.76663063 L3.78483565,9.76663063 L3.78483565,6.87711712 M13.6882396,0.198630631 L9.62290723,0.198630631 C8.41864134,1.12807207 6.57484295,1.39041441 0.785390796,1.39041441 L0.785390796,3.26054054 C2.61048941,3.26054054 4.1476114,3.2418018 5.46033601,3.19308108 L5.46033601,4.93953153 L0.392695398,4.93953153 L0.392695398,6.87711712 L1.43240321,6.87711712 L1.43240321,9.76663063 L0,9.76663063 L0,11.8129009 L1.43240321,11.8129009 L1.43240321,14.9385225 L0.392695398,14.9385225 L0.392695398,16.8761081 L5.46033601,16.8761081 L5.46033601,19.4395676 C3.78483565,19.581982 2.07941563,19.6831712 0.377735573,19.7393874 L0.377735573,22.4265225 C5.3331775,22.018018 9.52566837,21.4371171 13.2693645,20.6800721 L13.2693645,18.5925766 C11.6611833,18.8099459 9.94080351,19.0123243 8.16058437,19.195964 L8.16058437,16.8761081 L13.1870855,16.8761081 L13.1870855,14.9385225 L12.1361578,14.9385225 L12.1361578,11.8129009 L13.5274215,11.8129009 L13.5274215,9.76663063 L12.1361578,9.76663063 L12.1361578,6.87711712 L13.1870855,6.87711712 L13.1870855,4.93953153 L8.16058437,4.93953153 L8.16058437,3.00194595 C11.3208473,2.65715315 12.5550329,1.86637838 13.6882396,0.198630631" id="Shape"></path>
                    </g>
                    <g id="shape28-23" transform="translate(118.486486, 5.189189)" fill-rule="nonzero" fill="#596383">
                        <path d="M6.64804324,9.27844041 C8.99597838,3.92223305 9.01881081,3.45407178 9.01881081,2.33343376 L9.01881081,0.294904741 L0,0.294904741 L0,22.4275055 L2.7475027,22.4275055 L2.7475027,2.33343376 L6.11909189,2.33343376 C6.05820541,3.49830749 5.88315676,4.32404076 4.12886486,9.35953921 C6.02015135,12.0357997 6.43113514,13.2080461 6.43113514,14.7673549 C6.43113514,16.2492512 6.13050811,17.1745148 4.65781622,17.1745148 L3.91956757,17.1745148 L3.91956757,19.8470891 L4.81764324,19.8470891 C8.14356757,19.8470891 9.23191351,18.5273903 9.23191351,15.2428888 C9.23191351,13.1896145 8.38330811,11.2506159 6.64804324,9.27844041 Z" id="Shape"></path>
                    </g>
                </g>
            </g>
        </g>
    </g>
</svg>