<svg xmlns="http://www.w3.org/2000/svg" width="207" height="24" viewBox="0 0 207 24">
    <g fill="#C2C4CC" fill-rule="nonzero">
        <path d="M18.958 1.044h3.113v8.802h7.895V1.044l2.346-.018V22.67h-2.346V11.042h-7.895V22.67h-3.113zM53.28 1.088h2.629L66.97 15.146V1.088h1.686v21.908l-13.68-17.65V22.71h-1.74zM71.587 1.088h7.889l1.127 2.504s-1.322-1.315-3.798-1.315h-1.912v7.618h3.205c1.63 0 1.871-.159 2.505-.792v3.213s-.71-1.085-2.505-1.085h-3.205v10.018h4.458c4.32 0 6.525-1.795 6.525-1.795l-1.586 3.255-12.743.003.04-21.624zM181.248 1.088H190l1.127 2.504s-1.237-1.315-3.982-1.315h-2.88v7.618h3.495c1.271 0 1.664-.114 2.152-.602v2.562s-.357-.75-2.152-.75h-3.494V21.25h2.112c3.807 0 5.279-1.146 5.279-1.146l-1.929 2.606-8.519.003.04-21.624zM35.279 1.073h8.752l1.126 2.504S43.921 2.26 41.176 2.26h-2.88V9.88h3.494c1.271 0 1.664-.115 2.153-.602v2.561s-.358-.75-2.153-.75h-3.494v10.144h2.112c3.807 0 5.279-1.146 5.279-1.146l-1.928 2.607-8.52.002.04-21.623zM15.89 1.088H1.531L.348 3.766S1.646 2.45 4.528 2.45l2.588-.001.005 20.217 3.077.003.005-20.219h2.69c2.883 0 4.181 1.316 4.181 1.316L15.89 1.088zM81.576 1.088h3.333l7.188 15.856 1.508-3.334-5.508-12.522h3.189l4 8.464 3.826-8.464h1.623l-4.55 10.754 2.318 5.102 6.986-15.856h1.942l-9.623 21.798-3.334-7.073-3.246 7.101zM137.49.348c7.445 0 11.968 5.247 11.968 11.08 0 7.529-4.085 12.263-11.792 12.263-7.708 0-12.307-5.825-12.307-11.606 0-6.525 4.862-11.737 12.131-11.737zm-8.933 11.255c0 5.062 2.85 10.599 9.328 10.599 5.985 0 8.365-4.906 8.365-10.468 0-4.46-3.022-10.116-8.891-10.116-4.112 0-8.802 3.245-8.802 9.985zM152.02 1.088h5.073c2.669 0 4.899 1.547 4.899 4.406 0 3.37-2.483 4.246-4.174 4.783 3.074.513 4.203 1.985 4.203 6.116 0 4.122 1.048 5.652 1.993 5.652.727 0 1.295-.48 1.498-.81l.422.288c-.124.194-.977 1.536-2.957 1.536-1.97 0-3.478-1.825-3.478-6.115 0-6.203-1.677-6.32-3.014-6.32v-.463c.04-.01 2.87-.615 2.87-4.087 0-3.283-1.972-3.797-2.784-3.797h-1.449v20.435h-3.141l.04-21.624zM193.077 1.088h5.073c2.669 0 4.898 1.547 4.898 4.406 0 3.37-2.482 4.246-4.174 4.783 3.075.513 4.203 1.985 4.203 6.116 0 4.122 1.049 5.652 1.994 5.652.727 0 1.295-.48 1.498-.81l.421.288c-.123.194-.976 1.536-2.956 1.536-1.971 0-3.479-1.825-3.479-6.115 0-6.203-1.676-6.32-3.014-6.32v-.463c.04-.01 2.87-.615 2.87-4.087 0-3.283-1.971-3.797-2.783-3.797h-1.45v20.435h-3.14l.04-21.624zM176.125 16.393c0 4.121 1.048 5.652 1.993 5.652.727 0 1.295-.48 1.497-.81l.423.288c-.125.194-.978 1.536-2.957 1.536-1.971 0-3.478-1.826-3.478-6.116v-.869c0-2.557-.125-4.552-.569-5.858-.343-1.01-1.586-1.765-2.12-1.765h-.666v14.26h-3.142l.04-21.623h3.102v6.377l5.681-6.377h2.029l-5.967 6.698c3.074.512 4.134 2.804 4.134 7.766v.84zM120.902 22.712V11.549l6.024-10.46h-1.948l-5.72 9.933-5.72-9.934h-1.947l6.024 10.46v11.164z"/>
    </g>
</svg>
