<svg xmlns="http://www.w3.org/2000/svg" width="182" height="24" viewBox="0 0 182 24">
    <path fill="#C2C4CC" fill-rule="nonzero" d="M13.784 2.46c0-1.959-1.826-2.525-3.349-2.454v.306c.914.023 1.616.33 1.616.943 0 .426-.304.967-1.218.967-.726 0-2.131-.424-3.255-.802C6.336.995 5.165.594 4.182.594 2.26.594.809 2.034.809 3.803c0 1.44 1.077 1.958 1.522 2.148l.14-.236c-.28-.19-.561-.401-.561-.967 0-.426.374-1.11 1.358-1.11.89 0 2.061.4 3.607.85 1.335.377 2.81.73 3.607.826V8.38L8.983 9.63v.118l1.499 1.322v4.223c-.773.448-1.663.566-2.436.566-1.429 0-2.787-.378-3.864-1.58l4.028-1.96V5.55L3.268 7.768c.515-1.322 1.546-2.194 2.6-2.831l-.07-.236C2.87 5.503.2 8.215.2 11.566a6.935 6.935 0 0 0 6.91 6.982c3.981 0 6.51-3.137 6.464-6.463l-.234-.022c-.586 1.274-1.43 2.477-2.53 3.114v-4.105l1.593-1.274-.022-.142-1.57-1.275V5.315c1.452 0 2.975-.99 2.975-2.854l-.002-.002zM5.235 13.43l-1.194.59c-.68-.897-1.124-2.1-1.124-3.775 0-.684.07-1.535.28-2.123l2.062-.92-.024 6.228zm10.423 2.194l-1.311.992.164.187.632-.448 2.202 2.028 2.95-1.982-.14-.212-.773.496-.96-.967V8.924l.796-.591L20.905 9.7v6.017c0 3.75-.82 4.364-2.506 4.978v.26c2.787.118 5.293-.826 5.293-5.638V8.853l.89-.709-.164-.211-.773.612-2.412-2.1-2.811 2.124V.407h-.211l-3.49 2.359v.213c.351.213.937.353.937 1.534v11.11zm17.988-1.062l-2.412 1.888-2.507-1.983v-1.18l4.661-3.137v-.142L31.07 6.422l-5.083 2.737v6.51l-1.007.78.164.212.914-.732 3.325 2.431 4.45-3.538-.187-.26zm-4.919-1.628v-4.86l.165-.118 2.154 3.421-2.319 1.557zm23.75-11.371c0-.307-.071-.566-.188-.92h-.234c-.305.826-.68 1.274-1.64 1.274-.843 0-1.499-.518-1.85-.897 0 .023-2.81 3.28-2.81 3.28l.233.213.797-.92c.609.472 1.053.92 2.412.942v8.258L43.435 2.74C42.99 1.986 42.241.854 40.86.854c-1.546 0-2.975 1.346-2.787 3.61h.28c.071-.613.376-1.273 1.055-1.273.539 0 1.03.518 1.288.99v3.233c-1.78 0-2.951.825-2.951 2.287 0 .756.375 2.03 1.616 2.266l.022-.213c-.164-.165-.329-.353-.329-.683 0-.543.398-.897 1.124-.897.118 0 .445.022.516.047v4.2c-2.085.022-3.701 1.178-3.701 3.161 0 1.887 1.616 2.784 3.302 2.688l.023-.234c-1.054-.118-1.617-.614-1.617-1.298 0-.85.61-1.296 1.382-1.296.797 0 1.5.495 1.991 1.061l2.834-3.185-.234-.213-.726.826c-1.077-.967-1.686-1.321-2.928-1.51V4.488l7.94 13.944h.562V4.535c1.524-.094 2.952-1.25 2.952-2.972h.003zm7.096 13L57.16 16.45l-2.506-1.983v-1.18l4.661-3.137v-.142l-2.318-3.586-5.083 2.737v6.51l-1.007.78.164.212.913-.732 3.326 2.431 4.45-3.538-.187-.26zm-4.919-1.629v-4.86l.165-.118 2.154 3.421-2.319 1.557zm21.032-5.426l-.726.543-1.874-1.605-2.178 1.983.89.849v7.478l-2.389-1.533V9.136l.773-.543-2.295-2.148-2.132 1.983.89.849v7.102l-.304.187-2.085-1.486V9.112c0-1.368-.655-1.77-1.522-2.312-.726-.448-1.054-.826-1.054-1.51 0-.566.562-.896.843-1.061-.022-.023-.022-.236-.022-.236-.75-.023-2.834.802-2.88 2.714-.023.99.444 1.414.936 1.887.492.471.937.92.937 1.745v5.733l-1.054.826.164.213.96-.755 2.6 2.052 2.46-1.675 2.716 1.675 5.224-3.066V8.688l1.288-.944-.164-.236h-.002zm18.246-5.45l-.984.897-2.202-1.936-3.209 2.408V1.162h-.327l.07 16.066c-.328-.047-1.148-.236-1.898-.353l-.07-13.425c0-.99-.702-2.36-2.459-2.36-1.803 0-2.974 1.393-2.974 2.785h.28c.094-.59.399-1.109.984-1.109.61 0 1.125.377 1.125 1.699v3.869c-1.804.07-2.834 1.085-2.834 2.335 0 .779.351 1.982 1.616 2.03l.046-.237c-.421-.187-.515-.448-.515-.684 0-.565.539-.8 1.288-.8h.352v6.133c-1.43.496-2.085 1.557-2.085 2.76 0 1.652 1.312 2.902 3.232 2.902 1.359 0 2.53-.236 3.771-.519 1.007-.212 2.225-.448 2.81-.448.75 0 1.078.354 1.078.896 0 .684-.305.944-.703 1.062l.047.236c1.616-.307 2.553-1.275 2.553-2.737 0-1.51-1.428-2.406-3.021-2.406-.82 0-2.436.26-3.654.543-1.358.306-2.74.448-3.162.448-.68 0-1.522-.33-1.522-1.25 0-.826.679-1.487 2.365-1.487.914 0 1.944.142 3.069.4 1.194.26 2.248.59 3.279.59 1.428 0 2.717-.518 2.717-2.618V3.261l1.147-.991-.21-.212zm-4.029 6.11c-.258.284-.68.567-1.171.567-.539 0-.937-.33-1.195-.566V3.757l1.008-.684 1.358 1.25V8.17zm0 2.95a1.7 1.7 0 0 0-1.171-.496c-.515 0-.984.306-1.195.496V8.523c.211.187.68.518 1.195.518s.937-.282 1.171-.518v2.595zm0 4.624c0 .802-.539 1.58-1.57 1.58-.163 0-.632-.023-.796-.047v-5.803c.235-.214.656-.544 1.195-.544.492 0 .89.284 1.171.544v4.27zm13.444-7.032l-3.185-2.288-4.778 2.761v6.464l-.984.803.14.211.773-.636 3.162 2.336 4.872-2.997V8.71zm-5.223 6.253V7.886l2.483 1.793v7.077l-2.483-1.793zm14.615-8.28c0 .022-.187 0-.187 0-.258.234-.586.4-.867.4-.374 0-.866-.235-1.1-.542h-.188l-1.663 1.839-1.71-1.84-2.904 2.029.14.235.774-.518 1.007 1.085v6.252l-1.312.992.164.187.633-.448 2.365 2.028 3.068-2.053-.14-.212-.867.519-1.147-1.04V8.638c.491.544 1.077 1.016 1.756 1.016 1.312.002 2.038-1.461 2.178-2.971zm11.828 9.507l-3.35 2.218-4.543-6.913 3.209-5.024.21-.022c.376.377 1.031.778 1.64.778.68 0 1.148-.377 1.43-.778 0 0 .186.022.186 0-.116 2.005-1.452 3.137-2.459 3.137-1.03 0-1.522-.471-2.06-.802l-.305.449 4.918 7.337.984-.614.14.234zm-10.82-.566l-1.312.992.164.187.632-.448 2.202 2.028 2.95-1.982-.163-.212-.75.496-.96-.967V.407h-.211l-3.56 2.383v.212c.35.212 1.007.307 1.007 1.51v11.112zM140.89 2.459c0-1.958-1.827-2.524-3.35-2.453v.306c.914.023 1.617.33 1.617.943 0 .426-.304.967-1.218.967-.726 0-2.131-.424-3.256-.802-1.24-.425-2.412-.826-3.396-.826-1.92 0-3.372 1.44-3.372 3.209 0 1.44 1.077 1.958 1.522 2.148l.14-.236c-.28-.189-.562-.4-.562-.966 0-.426.375-1.11 1.359-1.11.89 0 2.061.4 3.607.85 1.335.377 2.81.73 3.607.826V8.38l-1.5 1.251v.118l1.5 1.321v4.224c-.773.448-1.663.566-2.436.566-1.429 0-2.787-.378-3.865-1.581l4.029-1.958V5.55l-4.942 2.219c.515-1.323 1.546-2.194 2.6-2.832l-.07-.236c-2.928.802-5.598 3.515-5.598 6.865a6.935 6.935 0 0 0 6.91 6.982c3.98 0 6.51-3.137 6.464-6.463l-.235-.022c-.585 1.274-1.428 2.477-2.53 3.114v-4.105l1.594-1.274-.023-.142-1.569-1.275V5.315c1.452 0 2.975-.99 2.975-2.854l-.002-.002zm-8.549 10.97l-1.194.59c-.68-.896-1.124-2.1-1.124-3.774 0-.684.07-1.535.28-2.123l2.062-.92-.022 6.228h-.002zm11.922-11.89l-.14-.023-1.968 1.675v.142l1.663 1.887h.164l1.967-1.652-.022-.118-1.663-1.912h-.001zm2.998 14.651l-.75.495-.96-.966V8.875l.937-.707-.187-.235-.726.565-1.71-2.052-2.81 1.982.163.26.703-.473.867 1.085v6.418l-1.265.966.14.189.656-.472 2.155 1.981 2.951-1.981-.164-.211zm16.395-.118l-.703.472-1.054-.968V8.853l1.008-.755-.165-.214-.866.661-2.249-2.1-2.904 2.076-2.225-2.076-2.857 2.053-1.757-2.053-2.81 1.983.14.26.703-.473.96 1.062v6.417l-.773.778 2.248 1.91 2.179-1.982-.89-.848v-6.7l.843-.565 1.522 1.414v5.994l-.75.778 2.273 1.91 2.131-1.982-.89-.848V8.805l.75-.496 1.616 1.392V15.6l-.656.684 2.295 2.1 3.021-2.075-.14-.236zm8.55-1.51l-2.413 1.888-2.507-1.982v-1.18l4.661-3.137v-.142l-2.318-3.586-5.083 2.737v6.724l3.396 2.476 4.45-3.539-.187-.259zm-4.92-1.628v-4.86l.165-.118 2.154 3.42-2.319 1.558zm13.913-.924l-1.897-1.439c1.265-1.109 1.756-2.596 1.756-3.61 0-.141-.022-.4-.046-.637h-.235c-.187.52-.562.968-1.335.968-.75 0-1.288-.425-1.756-.945l-4.427 2.431v3.61l1.64 1.297c-1.663 1.486-1.968 2.525-1.968 3.28 0 .99.445 1.7 1.288 2.028l.117-.213c-.21-.187-.398-.307-.398-.755 0-.33.398-.802 1.148-.802.96 0 1.546.66 1.85 1.015 0-.023 4.263-2.572 4.263-2.572V12.01zm-1.054-2.974c-.656 1.18-2.178 2.337-3.021 2.998l-1.078-.85V7.67c.422.944 1.452 1.746 2.577 1.746.655 0 1.007-.119 1.522-.379zm-1.733 7.881c-.492-1.109-1.64-1.91-2.81-1.91-.282 0-1.102 0-1.851.472.445-.756 1.757-2.171 3.443-3.185l1.218.944v3.68z"/>
</svg>
