<svg xmlns="http://www.w3.org/2000/svg" width="165" height="24" viewBox="0 0 165 24">
    <g fill="#C2C4CC" fill-rule="evenodd">
        <path d="M153.006 4.793a7.034 7.034 0 0 0-7.026 7.026c0 3.873 3.151 7.024 7.026 7.024 3.873 0 7.025-3.151 7.025-7.024 0-3.874-3.152-7.026-7.025-7.026m0 18.829c-6.509 0-11.805-5.295-11.805-11.803 0-6.51 5.296-11.804 11.805-11.804 6.509 0 11.803 5.295 11.803 11.804 0 6.508-5.294 11.803-11.803 11.803M126.453 18.786c-.571.037-1.186.044-1.847.044h-3.099V4.793h3.099c.66 0 1.276.007 1.847.043a7.026 7.026 0 0 1 4.947 2.995 6.982 6.982 0 0 1 1.24 3.966v.028a6.986 6.986 0 0 1-1.24 3.967 7.027 7.027 0 0 1-4.947 2.994m10.968-6.975v-.004a11.758 11.758 0 0 0-2.285-6.968 11.79 11.79 0 0 0-9.17-4.83c-.116-.004-.232-.009-.35-.009l-5.928.008c-1.011 0-1.744.23-2.197.691-.454.46-.68 1.205-.68 2.235v17.754c0 1.03.226 1.774.68 2.235.453.461 1.186.692 2.197.692l5.928.007c.118 0 .234-.006.35-.009a11.795 11.795 0 0 0 9.17-4.83 11.76 11.76 0 0 0 2.285-6.969v-.003M100.017 4.793c-3.874 0-7.025 3.152-7.025 7.026 0 3.873 3.151 7.024 7.025 7.024a7.033 7.033 0 0 0 7.025-7.024c0-3.874-3.15-7.026-7.025-7.026m0 18.829c-6.509 0-11.804-5.295-11.804-11.803 0-6.51 5.295-11.804 11.804-11.804 6.508 0 11.804 5.295 11.804 11.804 0 6.508-5.296 11.803-11.804 11.803M81.529.105a2.026 2.026 0 0 0-2.298.837l-7.116 10.84L64.998.943A2.025 2.025 0 0 0 62.7.105a2.088 2.088 0 0 0-1.45 2.003v19.268c0 1.156.916 2.093 2.047 2.093 1.13 0 2.047-.937 2.047-2.093V8.984l5.054 7.697.01.016.005.009c.006.01.014.018.02.027.032.046.064.092.1.136.015.02.032.037.048.056.028.032.056.064.086.095.027.028.056.053.085.08a1.625 1.625 0 0 0 .187.15c.01.01.022.02.034.028l.005.003c.045.03.092.058.14.085l.039.024c.035.02.072.036.108.053.208.097.425.157.643.18h.005c.043.004.087.005.13.007l.07.003c.025 0 .049-.003.072-.003.044-.002.087-.003.13-.007h.004a1.99 1.99 0 0 0 .644-.18c.036-.017.073-.034.108-.053.014-.007.026-.016.04-.024.047-.027.094-.054.138-.085l.006-.003.035-.027c.042-.03.084-.06.124-.094l.064-.058c.028-.026.056-.051.083-.078.03-.032.058-.065.086-.097.016-.018.033-.036.048-.055.036-.044.068-.09.1-.136.006-.01.014-.018.02-.027l.006-.01.01-.015 5.053-7.697v12.392c0 1.156.916 2.093 2.048 2.093 1.13 0 2.048-.937 2.048-2.093V2.108c0-.921-.59-1.734-1.452-2.003M54.282 22.904H38.975c-.805 0-1.7-.503-2.031-1.288-.332-.783-.4-1.85.314-2.698l12.52-14.529H39.436c-1.131 0-2.049-.978-2.049-2.187 0-1.208.918-1.946 2.049-1.946h13.948c.805 0 1.639.128 2.367.926.665.729.636 2.302-.11 3.241L43.544 18.53h10.739c1.13 0 1.954.98 1.954 2.187 0 1.208-.823 2.188-1.954 2.188M27.162 20.801V2.804c0-.934.213-1.635.64-2.103.425-.467.977-.7 1.653-.7.697 0 1.26.231 1.692.693.431.462.647 1.165.647 2.11v17.997c0 .945-.216 1.652-.647 2.12-.432.467-.995.701-1.692.701-.666 0-1.214-.237-1.645-.71-.432-.472-.648-1.176-.648-2.11M11.902 23.622c-3.397 0-6.477-1.346-8.674-3.792C1.293 17.675.183 14.837.183 12.042.183 3.269 7.475 0 12.073 0c4.518 0 7.836 2.216 7.975 2.31a2.265 2.265 0 0 1 .608 3.118 2.201 2.201 0 0 1-3.068.622c-.06-.038-2.413-1.556-5.515-1.556-2.882 0-6.855 1.901-6.855 7.548 0 3.212 2.388 7 6.77 7 2.464 0 4.197-.657 5.204-1.298v-3.341H13.78c-1.226 0-2.219-1.005-2.219-2.246 0-1.242.993-2.247 2.219-2.247h5.632c1.225 0 2.218 1.005 2.218 2.247v6.683a2.26 2.26 0 0 1-.673 1.612c-1.488 1.462-4.752 3.17-9.054 3.17"/>
    </g>
</svg>
