<svg xmlns="http://www.w3.org/2000/svg" width="31" height="31" viewBox="0 0 31 31">
    <g fill="none" fill-rule="nonzero">
        <path fill="#C2C4CC" d="M15.199 30.413c8.386 0 15.184-6.797 15.184-15.183 0-8.387-6.798-15.184-15.184-15.184C6.812.046.015 6.843.015 15.23c0 8.386 6.797 15.183 15.184 15.183"/>
        <path fill="#FFF" d="M9.45 24.25h1.056V7.044H9.451z"/>
        <path fill="#FFF" d="M9.45 24.25h1.056V7.044H9.451zM5.12 13.312c.018-1.097 1.898-1.128 1.898-.053l.017.932h1.437v-.861c.092-2.882-4.845-2.877-4.807-.071v4.959c-.038 2.806 4.9 2.876 4.813 0v-1.04h-1.46v1.11c0 1.078-1.877 1.095-1.896 0v-5.03l-.003.054M13.328 12.19s.25-.372.908-.736c.834-.462 1.65-.002 1.531-.053.657.29.906.995.952 1.782v5.87h.925v1.078h-2.377l-.002-7.016c0-1.024-1.726-.992-1.743.048l.002-.048v7.016h-2.133v-1.08l.677.003v-6.575l-.803-.005v-1.073h2.057l.006.79M24.096 18.194c.046.786.294 1.493.951 1.783-.123-.056.32.165.776.16.24-.006 1.399-.005 1.399-.005v-1.078s-.584-.008-.896-.005c-.395.005-.736-.183-.765-.739l.004-5.825-.004-.01h1.403v-1.057h-1.408l.008-.017V9.142h-1.468v9.052M21.453 17.177v1.112c0 1.077-1.877 1.094-1.896 0v-2.314l3.084.002c.146 0 .266-.12.266-.268V13.33c.09-2.881-4.844-2.877-4.805-.071v4.959c-.039 2.806 4.9 2.877 4.81 0v-1.04h-1.459zm-1.896-3.926c.025-1.077 1.896-1.067 1.896.008l-.004 1.622h-1.893v-1.63z"/>
    </g>
</svg>
