<svg xmlns="http://www.w3.org/2000/svg" width="87" height="32" viewBox="0 0 87 32">
    <g fill="none" fill-rule="evenodd">
        <g fill="#C2C4CC">
            <path d="M30.101 17.6c.573-.494 1.18-.758 1.824-.784.377 0 .714.126 1.008.374.3.256.454.58.454.96 0 .442-.16.781-.48.999-.283.192-.683.354-1.205.488-.493.129-.798.228-.925.3-1.134.613-1.697 1.659-1.697 3.166v6.491c0 .411-.12.742-.363.98-.24.235-.54.353-.89.353-.365 0-.68-.122-.937-.366-.26-.25-.388-.593-.388-1.018V18.187c0-.4.124-.729.375-.975a1.26 1.26 0 0 1 .903-.362c.354 0 .664.12.915.354.257.243.385.574.385.983v.527c.287-.4.627-.772 1.021-1.114zM34.349 20.41a6.499 6.499 0 0 1 2.1-2.575c.914-.662 1.99-1.002 3.224-1.018 1.196 0 2.262.323 3.194.97a6.379 6.379 0 0 1 2.143 2.554 7.62 7.62 0 0 1 .752 3.309c0 .835-.505 1.278-1.43 1.278H36.18c.04.772.219 1.423.537 1.957.346.58.805 1.012 1.383 1.299.584.29 1.232.434 1.949.434 1.26 0 2.416-.445 3.486-1.35.409-.295.715-.445.946-.445.308 0 .558.12.735.354.163.219.245.483.245.783 0 .33-.126.644-.38.944-.512.545-1.233 1.017-2.161 1.42-.93.402-1.93.603-2.998.603-1.125 0-2.104-.211-2.937-.638a5.561 5.561 0 0 1-2.018-1.699 7.196 7.196 0 0 1-1.109-2.267 9.363 9.363 0 0 1-.364-2.445l.024-.097.024-.048a8.835 8.835 0 0 1 .808-3.324zm8.794 2.442c-.053-1.091-.364-1.966-.93-2.638-.593-.703-1.404-1.065-2.442-1.088-1.063 0-1.91.34-2.556 1.021-.61.647-.956 1.547-1.032 2.705h6.96zM56.237 12.222c0-.399.13-.723.39-.959.25-.23.55-.348.891-.348.373 0 .692.116.944.347.26.238.386.578.386 1.007v17.324c0 .41-.13.74-.396.983a1.35 1.35 0 0 1-.934.352 1.29 1.29 0 0 1-.883-.351 1.209 1.209 0 0 1-.398-.932v-.116c-.237.3-.54.567-.908.805-.573.369-1.337.564-2.3.594-1.22 0-2.293-.299-3.216-.898-.924-.596-1.639-1.428-2.146-2.495-.502-1.059-.763-2.257-.783-3.598 0-.96.14-1.872.421-2.738.282-.871.68-1.632 1.196-2.284a5.642 5.642 0 0 1 1.865-1.538 5.165 5.165 0 0 1 2.39-.56c1.403 0 2.568.506 3.48 1.511v-6.106zm-6.742 11.616c0 1.321.284 2.445.85 3.37.554.902 1.368 1.369 2.458 1.41.885 0 1.59-.226 2.125-.677a3.752 3.752 0 0 0 1.17-1.743c.241-.724.371-1.497.392-2.316 0-.946-.153-1.784-.456-2.515-.3-.722-.716-1.277-1.245-1.665a2.947 2.947 0 0 0-1.784-.577c-.785 0-1.432.23-1.948.684a4.104 4.104 0 0 0-1.158 1.765 7.431 7.431 0 0 0-.404 2.264zM70.237 12.222c0-.399.13-.723.39-.959.25-.23.55-.348.891-.348.373 0 .692.116.944.347.26.238.386.578.386 1.007v17.324c0 .41-.13.74-.396.983a1.35 1.35 0 0 1-.934.352 1.29 1.29 0 0 1-.883-.351 1.209 1.209 0 0 1-.398-.932v-.116c-.237.3-.54.567-.908.805-.573.369-1.337.564-2.3.594-1.22 0-2.293-.299-3.216-.898-.924-.596-1.639-1.428-2.146-2.495-.502-1.059-.763-2.257-.783-3.598 0-.96.14-1.872.421-2.738.282-.871.68-1.632 1.196-2.284a5.642 5.642 0 0 1 1.865-1.538 5.165 5.165 0 0 1 2.39-.56c1.403 0 2.568.506 3.48 1.511v-6.106zm-6.742 11.616c0 1.321.284 2.445.85 3.37.554.902 1.368 1.369 2.458 1.41.885 0 1.59-.226 2.125-.677a3.752 3.752 0 0 0 1.17-1.743c.241-.724.371-1.497.392-2.316 0-.946-.153-1.784-.456-2.515-.3-.722-.716-1.277-1.245-1.665a2.947 2.947 0 0 0-1.784-.577c-.785 0-1.432.23-1.948.684a4.104 4.104 0 0 0-1.158 1.765 7.431 7.431 0 0 0-.404 2.264zM81.457 19.26c-.362 0-.662-.106-.893-.322-.22-.209-.351-.471-.391-.825.074-.757.523-1.163 1.284-1.163h.777v-2.793c0-.38.128-.69.383-.911.247-.212.548-.318.897-.318.367 0 .684.107.938.32.264.225.395.552.395.965v2.737h.776c.385 0 .693.108.91.33.215.22.322.507.322.853 0 .299-.106.565-.312.787-.212.226-.487.34-.815.34h-.88v10.38c0 .392-.141.715-.419.95a1.456 1.456 0 0 1-.963.338c-.343 0-.64-.117-.874-.348-.24-.237-.358-.571-.358-.988V19.26h-.777z"/>
            <path fill-rule="nonzero" d="M78.067 13.407a1.278 1.278 0 1 0-2.556 0 1.278 1.278 0 0 0 2.556 0zm1.067 0a2.344 2.344 0 1 1-4.69 0 2.344 2.344 0 0 1 4.69 0zM75.673 18.067v11.601a1.12 1.12 0 0 0 2.24 0v-11.6a1.12 1.12 0 0 0-2.24 0z"/>
        </g>
        <path fill="#FFF" stroke="#C2C4CC" d="M14.67 17.941c1.91 0 3.46 1.87 3.46 4.176 0 2.307-1.55 4.176-3.46 4.176-1.912 0-3.46-1.869-3.46-4.176 0-2.306 1.548-4.176 3.46-4.176M9.225 30.64c.05-.154.084-.314.084-.482 0-1.067-1.067-1.932-2.384-1.932s-2.384.865-2.384 1.932c0 .168.035.328.085.483h4.599zM17.574 30.64a1.57 1.57 0 0 0 .084-.482c0-1.067-1.068-1.932-2.385-1.932-1.316 0-2.383.865-2.383 1.932 0 .168.035.328.084.483h4.6zM4.583 9.111a2.119 2.119 0 1 1-4.237 0 2.119 2.119 0 0 1 4.237 0M21.919 9.111a2.12 2.12 0 1 1-4.239 0 2.12 2.12 0 0 1 4.239 0"/>
        <path stroke="#C2C4CC" stroke-linecap="round" stroke-linejoin="round" stroke-width="1.1" d="M17.007 1.673L12.768.675 11.211 5.6"/>
        <path fill="#FFF" stroke="#C2C4CC" d="M7.533 17.941c1.911 0 3.46 1.87 3.46 4.176 0 2.307-1.549 4.176-3.46 4.176-1.91 0-3.459-1.869-3.459-4.176 0-2.306 1.549-4.176 3.46-4.176"/>
        <path fill="#FFF" d="M20.407 2.016a1.67 1.67 0 1 1-3.341 0 1.67 1.67 0 0 1 3.341 0"/>
        <path stroke="#C2C4CC" stroke-width="1.1" d="M20.407 2.016a1.67 1.67 0 1 1-3.341 0 1.67 1.67 0 0 1 3.341 0z"/>
        <path fill="#FFF" stroke="#C2C4CC" d="M9.913 30.643h2.345c2.083-1.084 3.627-4.973 3.627-9.617 0-5.482-2.15-9.926-4.799-9.926-2.65 0-4.8 4.444-4.8 9.926 0 4.644 1.544 8.533 3.627 9.617"/>
        <path fill="#FFF" stroke="#C2C4CC" d="M20.685 12.026c0 3.46-4.298 6.263-9.6 6.263-5.301 0-9.598-2.803-9.598-6.263s4.297-6.264 9.598-6.264c5.302 0 9.6 2.804 9.6 6.264"/>
        <path fill="#C2C4CC" d="M9.242 10.803a1.489 1.489 0 1 1-2.978 0 1.489 1.489 0 0 1 2.978 0zM16.004 10.803a1.488 1.488 0 1 1-2.976 0 1.488 1.488 0 0 1 2.976 0z"/>
        <path fill="#C2C4CC" fill-rule="nonzero" d="M11.132 15.54h-.012c-1.382 0-2.41-.256-3.044-.89a.367.367 0 1 0-.519.519c.806.806 2.004 1.104 3.563 1.104a.374.374 0 0 0 .024 0c1.559 0 2.756-.298 3.563-1.104a.367.367 0 1 0-.519-.519c-.633.634-1.662.89-3.044.89h-.012z"/>
        <path stroke="#C2C4CC" stroke-linecap="round" stroke-linejoin="round" d="M8.667 30.667H14"/>
    </g>
</svg>
