<?xml version="1.0" encoding="UTF-8"?>
<svg width="156px" height="34px" viewBox="0 0 156 34" version="1.1" xmlns="http://www.w3.org/2000/svg" xmlns:xlink="http://www.w3.org/1999/xlink">
    <!-- Generator: Sketch 46.2 (44496) - http://www.bohemiancoding.com/sketch -->
    <title>Blackship logo</title>
    <desc>Created with Sketch.</desc>
    <defs></defs>
    <g id="Symbols" stroke="none" stroke-width="1" fill="none" fill-rule="evenodd">
        <g id="_components/blackship" transform="translate(-239.000000, -64.000000)" fill-rule="nonzero" fill="#FFFFFF">
            <g id="Blackship-logo">
                <g transform="translate(239.000000, 64.000000)">
                    <path d="M18.86,17.28 C18.8949558,19.7696971 17.9268606,22.1687846 16.1737456,23.9369478 C14.4206306,25.705111 12.0299049,26.6936755 9.54,26.68 C6.29936844,26.7479066 3.30026219,24.9732417 1.8,22.1 L1.8,26.28 L0,26.28 L0,1.08 L1.8,1.08 L1.8,12.45 C3.30301909,9.58063524 6.30156752,7.81017447 9.54,7.88 C12.0299049,7.86632451 14.4206306,8.85488902 16.1737456,10.6230522 C17.9268606,12.3912154 18.8949558,14.7903029 18.86,17.28 Z M17.06,17.28 C17.0869555,15.2445953 16.2930446,13.2841039 14.857438,11.8409711 C13.4218313,10.3978383 11.4655178,9.59368744 9.43,9.61 C7.39531384,9.59643432 5.44060587,10.4014642 4.00559991,11.8439931 C2.57059395,13.2865221 1.7757957,15.2454126 1.8,17.28 C1.7730445,19.3154047 2.56695535,21.2758961 4.00256202,22.7190289 C5.43816868,24.1621617 7.39448223,24.9663126 9.43,24.95 C11.4655178,24.9663126 13.4218313,24.1621617 14.857438,22.7190289 C16.2930446,21.2758961 17.0869555,19.3154047 17.06,17.28 Z" id="Shape"></path>
                    <polygon id="Shape" points="23.22 0 25 0 25 26.28 23.2 26.28 23.2 0"></polygon>
                    <path d="M48.24,8.28 L48.24,26.28 L46.4,26.28 L46.4,22.21 C44.8466668,25.0169268 41.8674339,26.7336425 38.66,26.67 C36.1717644,26.6782098 33.7842364,25.6879008 32.0323136,23.9209401 C30.2803909,22.1539794 29.3105239,19.7580745 29.34,17.27 C29.3132213,14.7836488 30.2842811,12.3903339 32.0359086,10.6255504 C33.7875361,8.8607669 36.173518,7.87182621 38.66,7.88 C41.8674339,7.81635752 44.8466668,9.53307316 46.4,12.34 L46.4,8.28 L48.24,8.28 L48.24,8.28 Z M46.4,17.28 C46.4,13.0743516 42.9906484,9.665 38.785,9.665 C34.5793516,9.665 31.17,13.0743516 31.17,17.28 C31.17,20.0005775 32.6214108,22.5144947 34.9775,23.8747834 C37.3335892,25.2350722 40.2364108,25.2350722 42.5925,23.8747834 C44.9485892,22.5144947 46.4,20.0005775 46.4,17.28 Z" id="Shape"></path>
                    <path d="M52.56,17.28 C52.5101632,14.7650344 53.4900515,12.3388978 55.2725223,10.5639799 C57.0549931,8.78906191 59.4852687,7.81948446 62,7.88 C65.2927928,7.75027235 68.3592892,9.55110654 69.85,12.49 L68.37,13.35 C67.1602211,10.9654063 64.671835,9.50440727 62,9.61 C59.9611402,9.58256517 57.9983173,10.3831562 56.5602696,11.8287428 C55.1222219,13.2743294 54.3319049,15.2413116 54.37,17.28 C54.3346441,19.3169702 55.126172,21.2813399 56.5639151,22.724736 C58.0016582,24.1681321 59.9629068,24.9673623 62,24.94 C64.6896048,25.0038636 67.1898329,23.5608307 68.48,21.2 L70,22.1 C68.4007069,25.0024031 65.3124548,26.7665671 62,26.67 C59.4870379,26.7304204 57.0583526,25.762197 55.276193,23.9894769 C53.4940335,22.2167567 52.5129259,19.7932475 52.56,17.28 L52.56,17.28 Z" id="Shape"></path>
                    <polygon id="Shape" points="85.32 26.28 75.78 17.43 75.78 26.28 74 26.28 74 1.08 75.8 1.08 75.8 16.45 84.91 8.28 87.4 8.28 77.72 16.92 87.72 26.28"></polygon>
                    <path d="M104,21.2 C104,24.8 100.87,26.74 97,26.74 C93.4,26.74 90.81,25.12 89.66,22.53 L93,20.59 C93.6174727,22.2400084 95.2417873,23.2917522 97,23.18 C98.73,23.18 100.06,22.6 100.06,21.18 C100.06,17.98 90.38,19.78 90.38,13.33 C90.38,9.95 93.3,7.82 96.97,7.82 C99.719966,7.70132451 102.299958,9.15014855 103.63,11.56 L100.35,13.4 C99.7589645,12.0934978 98.432625,11.277898 97,11.34 C95.6,11.34 94.37,11.95 94.37,13.25 C94.35,16.52 104,14.54 104,21.2 Z" id="Shape"></path>
                    <path d="M123.62,15.23 L123.62,26.28 L119.73,26.28 L119.73,15.62 C119.73,12.88 118.15,11.44 115.73,11.44 C113.31,11.44 111.16,12.95 111.16,16.62 L111.16,26.27 L107.27,26.27 L107.27,1.08 L111.16,1.08 L111.16,10.58 C112.38742,8.72140251 114.517472,7.66401139 116.74,7.81 C120.74,7.81 123.62,10.55 123.62,15.23 Z" id="Shape"></path>
                    <path d="M127.26,3.1 C127.26,1.71928813 128.379288,0.6 129.76,0.6 C131.140712,0.6 132.26,1.71928813 132.26,3.1 C132.26,4.48071187 131.140712,5.6 129.76,5.6 C128.379288,5.6 127.26,4.48071187 127.26,3.1 Z M127.8,8.28 L131.69,8.28 L131.69,26.28 L127.8,26.28 L127.8,8.28 L127.8,8.28 Z" id="Shape"></path>
                    <path d="M155.34,17.28 C155.417998,19.733613 154.510025,22.1162496 152.818901,23.8956878 C151.127778,25.6751259 148.794404,26.7031051 146.34,26.75 C143.872916,26.8542908 141.514073,25.731032 140.04,23.75 L140.04,33.5 L136.15,33.5 L136.15,8.28 L140.04,8.28 L140.04,10.87 C141.493821,8.85787297 143.859678,7.70874253 146.34,7.81 C148.792629,7.86225704 151.122812,8.8918918 152.812788,10.670122 C154.502764,12.4483522 155.412552,14.8278871 155.34,17.28 Z M151.45,17.28 C151.537588,15.1920694 150.473597,13.2241423 148.678585,12.1540697 C146.883572,11.083997 144.646428,11.083997 142.851415,12.1540697 C141.056403,13.2241423 139.992412,15.1920694 140.08,17.28 C139.992412,19.3679306 141.056403,21.3358577 142.851415,22.4059303 C144.646428,23.476003 146.883572,23.476003 148.678585,22.4059303 C150.473597,21.3358577 151.537588,19.3679306 151.45,17.28 L151.45,17.28 Z" id="Shape"></path>
                </g>
            </g>
        </g>
    </g>
</svg>