<svg xmlns="http://www.w3.org/2000/svg" xmlns:xlink="http://www.w3.org/1999/xlink" width="92" height="109" viewBox="0 0 92 109">
    <defs>
        <path id="a" d="M71.935 59.763c3.368 11.355 3.848 22.77 3.848 27.123 0 5.2-3.784 9.877-9.813 13.125-5.343 2.878-17.267-4.044-25.068-4.044-7.433 0-19.053 7.084-24.3 4.443-6.474-3.257-10.58-8.107-10.58-13.524 0-1.36.047-3.41.214-5.931a10.223 10.223 0 0 1 3.18-19.602c1.589-5.807 3.905-11.685 7.271-16.679-3.048-4.124-4.64-9.151-4.64-14.577 0-4.673 1.181-9.051 3.457-12.811 1.997-3.3 1.47-14.827 5.095-16.957C23.91-1.617 31.244 5.721 35.82 5.102a42.744 42.744 0 0 1 5.727-.373c1.863 0 3.644.11 5.344.323C51.174 5.588 59.676-1.37 62.874.33c4.358 2.319 2.93 13.739 5.11 17.633l.026.046a10.192 10.192 0 0 1 4.765-1.175c5.647 0 10.225 4.571 10.225 10.21 0 5.003-4.063 27.674-11.065 32.72z"/>
        <circle id="b" cx="42.5" cy="67.5" r="13.5"/>
    </defs>
    <g fill="none" fill-rule="evenodd">
        <g stroke-linecap="round" stroke-linejoin="round" transform="translate(4 4)">
            <use fill="#FFF" xlink:href="#a"/>
            <path stroke="#FFF" stroke-width="2" d="M73.084 60.13c2.616 9.103 3.699 18.93 3.699 26.756 0 5.48-3.836 10.503-10.339 14.006-2.962 1.595-6.13 1.048-14.786-1.597l-.809-.246c-4.86-1.476-7.524-2.082-9.947-2.082-2.356 0-4.957.643-9.847 2.243l-.68.223c-8.288 2.724-11.338 3.322-14.223 1.87-6.971-3.507-11.13-8.71-11.13-14.417 0-1.516.054-3.333.173-5.311A11.22 11.22 0 0 1-1 71.542c0-5.628 4.16-10.333 9.634-11.109 1.689-5.974 3.946-11.285 6.84-15.736-2.907-4.182-4.428-9.203-4.428-14.6 0-4.852 1.23-9.41 3.602-13.329.543-.896.895-2.483 1.411-5.95l.14-.938c.055-.374.099-.667.143-.952.853-5.565 1.718-8.267 3.75-9.46 1.954-1.149 3.635-.54 8.77 2.221.384.206.657.352.927.494 2.845 1.499 4.575 2.107 5.897 1.928a43.749 43.749 0 0 1 5.861-.382c1.887 0 3.711.111 5.468.331 1.33.166 3.17-.478 6.793-2.206l.386-.185c5.449-2.606 7.282-3.216 9.15-2.222 2.452 1.304 3.346 4.159 4.02 10.03a179.375 179.375 0 0 1 .167 1.5c.326 2.97.58 4.605.969 5.698a11.208 11.208 0 0 1 4.275-.842c6.2 0 11.225 5.019 11.225 11.21 0 3.052-1.227 10.327-2.942 16.607-2.158 7.903-4.832 13.792-7.974 16.48z"/>
        </g>
        <path fill="#FFF" stroke="#3A4461" stroke-linecap="round" stroke-linejoin="round" d="M12.917 65.404C7.887 66.046 4 70.34 4 75.542c0 5.644 4.578 10.22 10.225 10.22M76.32 63.466C83.086 57.886 87 35.954 87 31.043c0-5.639-4.577-10.21-10.224-10.21a10.21 10.21 0 0 0-7.86 3.68"/>
        <path stroke="#00C967" stroke-linecap="round" stroke-linejoin="round" d="M20 48.57c4.772 7.06 13.556 11.73 25.732 11.73 8.945 0 16.06-2.52 21.097-6.657"/>
        <path stroke="#00C967" stroke-linecap="round" stroke-linejoin="round" d="M15.5 54.57c5.65 7.06 16.048 11.73 30.462 11.73 10.423 0 18.746-2.442 24.693-6.464"/>
        <g stroke-linecap="round" stroke-linejoin="round" transform="translate(4 4)">
            <use fill="#00C967" xlink:href="#b"/>
            <circle cx="42.5" cy="67.5" r="14.5" stroke="#FFF" stroke-width="2"/>
        </g>
        <g stroke="#3A4461" stroke-linecap="round" stroke-linejoin="round">
            <path d="M46 31.625s-.69 2.357-2.724 3.015c-2.033.658-3.64-.515-3.64-.515M46 31.625s.69 2.357 2.724 3.015c2.033.658 3.64-.515 3.64-.515"/>
        </g>
        <g stroke="#3A4461" stroke-linecap="round" stroke-linejoin="round">
            <path d="M62.583 32h5.834M62.583 29.714l4.667-1.143M62.583 34.286l4.667 1.143"/>
        </g>
        <g stroke="#3A4461" stroke-linecap="round" stroke-linejoin="round">
            <path d="M28.417 32h-5.834M28.417 29.714l-4.667-1.143M28.417 34.286l-4.667 1.143"/>
        </g>
        <g stroke="#3A4461" stroke-linecap="round" stroke-linejoin="round">
            <path d="M79 20l-3 5M82 20l-3 6M85 21l-3 6"/>
        </g>
        <path stroke="#3A4461" stroke-linecap="round" stroke-linejoin="round" d="M41 27c0-2.761-2.015-5-4.5-5S32 24.239 32 27M57 27c0-2.761-2.015-5-4.5-5S48 24.239 48 27"/>
        <path fill="#00C967" d="M57.897 10.046s6.394-3.97 8.288-2.845C68.122 8.35 67.888 16 67.888 16s-2.998-2.52-4.918-3.606c-1.92-1.087-5.073-2.348-5.073-2.348zM23.897 15s.061-6.812 1.94-7.831c1.88-1.02 7.06 2.915 7.06 2.915s-2.545.865-4.778 2.196C25.885 13.61 23.897 15 23.897 15z"/>
        <path stroke="#3A4461" stroke-linecap="round" stroke-linejoin="round" stroke-width="4" d="M78.215 64.453c2.522 9.034 3.568 18.692 3.568 26.433 0 5.9-4.067 11.224-10.865 14.886-3.318 1.787-6.555 1.229-15.552-1.52l-.807-.246c-4.765-1.447-7.366-2.04-9.657-2.04-2.212 0-4.75.629-9.536 2.195l-.678.222c-8.627 2.835-11.742 3.446-14.985 1.814-7.278-3.662-11.681-9.171-11.681-15.311 0-1.37.043-2.98.138-4.731A12.219 12.219 0 0 1 2 75.542c0-5.906 4.206-10.879 9.846-11.99 1.624-5.572 3.746-10.57 6.43-14.84-2.779-4.238-4.23-9.253-4.23-14.615 0-5.032 1.279-9.769 3.747-13.847.442-.73.785-2.276 1.277-5.58.028-.184.123-.831.14-.937.055-.375.1-.67.143-.957.909-5.923 1.814-8.75 4.232-10.17 1.459-.858 3.13-.764 5.111-.047 1.235.447 2.054.858 4.64 2.25.382.204.652.349.92.49 2.658 1.4 4.256 1.962 5.296 1.821a44.747 44.747 0 0 1 5.995-.39c1.928 0 3.793.113 5.592.338 1.056.132 2.82-.486 6.239-2.117l.385-.184c5.887-2.817 7.74-3.432 10.05-2.203 2.88 1.531 3.828 4.564 4.544 10.799a180.322 180.322 0 0 1 .168 1.505c.23 2.1.425 3.51.648 4.505a12.24 12.24 0 0 1 3.602-.54C83.526 18.833 89 24.3 89 31.043c0 3.154-1.24 10.512-2.977 16.87-2.102 7.696-4.678 13.526-7.808 16.54z"/>
    </g>
</svg>
