<?xml version="1.0" encoding="UTF-8"?>
<svg width="132px" height="93px" viewBox="0 0 132 93" version="1.1" xmlns="http://www.w3.org/2000/svg" xmlns:xlink="http://www.w3.org/1999/xlink">
    <!-- Generator: Sketch 46.1 (44463) - http://www.bohemiancoding.com/sketch -->
    <title>_elements/quotes</title>
    <desc>Created with Sketch.</desc>
    <defs></defs>
    <g id="Symbols" stroke="none" stroke-width="1" fill="none" fill-rule="evenodd" opacity="0.100000001">
        <g id="_elements/quotes" fill="#596383">
            <g id="“">
                <path d="M110.271953,0.28 C93.1919531,13.44 72.7519531,36.96 72.7519531,59.64 C72.7519531,77.28 84.5119531,92.68 102.991953,92.68 C118.951953,92.68 131.551953,81.48 131.551953,65.24 C131.551953,49.56 120.071953,39.48 104.951953,38.92 C108.871953,28.84 115.591953,19.88 122.871953,11.76 L110.271953,0.28 Z M38.3119531,0.28 C21.2319531,13.44 0.791953125,36.96 0.791953125,59.64 C0.791953125,77.28 12.5519531,92.68 31.0319531,92.68 C46.9919531,92.68 59.5919531,81.48 59.5919531,65.24 C59.5919531,49.56 48.1119531,39.48 32.9919531,38.92 C36.9119531,28.84 43.6319531,19.88 50.9119531,11.76 L38.3119531,0.28 Z"></path>
            </g>
        </g>
    </g>
</svg>