<svg xmlns="http://www.w3.org/2000/svg" width="26" height="26" viewBox="0 0 26 26">
    <g fill="none" fill-rule="evenodd">
        <path fill="#596383" d="M13.12 23.522l-2.536 2.351-1.444-3.142-3.243 1.2-.132-3.455-3.456-.132 1.201-3.243-3.142-1.444 2.35-2.537-2.35-2.536L3.51 9.14l-1.2-3.243 3.455-.132.132-3.456L9.14 3.51 10.584.368l2.536 2.35 2.537-2.35 1.444 3.142 3.243-1.2.132 3.455 3.455.132-1.2 3.243 3.142 1.444-2.35 2.536 2.35 2.537-3.142 1.444 1.2 3.243-3.455.132-.132 3.455-3.243-1.2-1.444 3.142z"/>
        <text fill="#FFF" font-family="OpenSans-Semibold, Open Sans" font-size="16" font-weight="500">
            <tspan x="6.105" y="19">%</tspan>
        </text>
    </g>
</svg>
