<svg xmlns="http://www.w3.org/2000/svg" width="140" height="120" viewBox="0 0 140 120">
    <g fill="none" fill-rule="evenodd" stroke-linecap="round" stroke-linejoin="round">
        <path fill="#FFF" stroke="#3A4461" stroke-width="4" d="M97.162 89.99h.023V24.94h-.023a4.63 4.63 0 0 0 .023-.465C97.185 17.033 79.235 11 57.093 11 34.95 11 17 17.033 17 24.475c0 .155.008.31.023.464H17v65.05h.023C17.752 97.218 35.413 103 57.093 103s39.34-5.783 40.069-13.01z"/>
        <path stroke="#3A4461" d="M18.045 23.545c0 7.442 17.393 13.475 38.85 13.475 21.456 0 38.85-6.033 38.85-13.475"/>
        <path stroke="#3A4461" d="M18.045 32.838c0 7.442 17.393 13.475 38.85 13.475 21.456 0 38.85-6.033 38.85-13.475"/>
        <path stroke="#3A4461" d="M18.045 42.131c0 7.442 17.393 13.475 38.85 13.475 21.456 0 38.85-6.033 38.85-13.475"/>
        <path stroke="#3A4461" d="M18.045 51.424c0 7.442 17.393 13.475 38.85 13.475 21.456 0 38.85-6.033 38.85-13.475"/>
        <path stroke="#3A4461" d="M18.045 60.717c0 7.442 17.393 13.475 38.85 13.475 21.456 0 38.85-6.033 38.85-13.475"/>
        <path stroke="#3A4461" d="M18.045 70.01c0 7.442 17.393 13.475 38.85 13.475 21.456 0 38.85-6.033 38.85-13.475"/>
        <path stroke="#3A4461" d="M18.045 79.303c0 7.442 17.393 13.475 38.85 13.475 21.456 0 38.85-6.033 38.85-13.475"/>
        <path stroke="#00C967" stroke-dasharray="1,2" d="M57.696 29.586c14.681 0 26.582-2.496 26.582-5.576 0-3.08-11.901-5.576-26.582-5.576-14.68 0-26.581 2.497-26.581 5.576 0 3.08 11.9 5.576 26.581 5.576z"/>
        <g>
            <path fill="#FFF" stroke="#3A4461" stroke-width="4" d="M109.005 106.051l.008.022 9.561-3.48-.008-.022c.15-.038.297-.083.443-.136 6.96-2.534 6.464-21.455-1.11-42.262-7.572-20.808-19.355-35.621-26.315-33.088a4.587 4.587 0 0 0-.427.18l-.008-.022-9.561 3.48.008.022c-6.51 3.145-5.88 21.71 1.535 42.082 7.415 20.373 18.865 35 25.874 33.224z"/>
            <path stroke="#3A4461" d="M92.878 27.937c-6.96 2.533-6.655 20.932.684 41.094 7.338 20.162 18.93 34.453 25.89 31.92"/>
            <path stroke="#00C967" stroke-dasharray="1,2" d="M99.651 66.22c5.548 15.242 12.625 26.66 15.808 25.5 3.182-1.157 1.265-14.452-4.283-29.694-5.548-15.242-12.625-26.66-15.807-25.501-3.183 1.158-1.265 14.453 4.282 29.695z"/>
        </g>
    </g>
</svg>
