<svg xmlns="http://www.w3.org/2000/svg" xmlns:xlink="http://www.w3.org/1999/xlink" width="140" height="120" viewBox="0 0 140 120">
    <defs>
        <path id="a" d="M6.003 0h45.65a5 5 0 0 1 5 5v94.831a5 5 0 0 1-5 5H6.003a5 5 0 0 1-5-5V5a5 5 0 0 1 5-5z"/>
    </defs>
    <g fill="none" fill-rule="evenodd">
        <path fill="#FFF" stroke="#3A4461" stroke-linecap="round" stroke-linejoin="round" stroke-width="4" d="M102.237 57v37.992c0 2.214-1.799 4.008-3.996 4.008H20.083a4 4 0 0 1-3.997-4.008V57"/>
        <path fill="#00C967" d="M62.979 14h10.593l7.946 24.34v14.603S77.545 57 73.572 57c-3.972 0-7.945-4.057-7.945-4.057V38.34L62.98 14zM42.57 14h10.594l-2.648 24.34v14.603S46.543 57 42.57 57c-3.972 0-7.945-4.057-7.945-4.057V38.34L42.57 14zM21.072 14h13.553l-15.36 24.34v14.603S15.197 57 11.131 57C7.066 57 3 52.943 3 52.943V38.34L21.072 14zM84.79 14h11.169l19.365 24.34v14.603S109.276 57 105.41 57c-3.866 0-7.303-4.057-7.303-4.057V38.34L84.789 14z"/>
        <path stroke="#3A4461" stroke-linecap="round" stroke-linejoin="round" stroke-width="4" d="M21.774 13h74.601l20.915 26.286H-.187L21.774 13zm75.853 39.687a21.3 21.3 0 0 1-1.34.981C94.141 55.114 91.952 56 89.758 56c-2.195 0-4.384-.886-6.528-2.332a21.3 21.3 0 0 1-1.341-.981 21.3 21.3 0 0 1-1.34.981C78.404 55.114 76.215 56 74.02 56c-2.194 0-4.383-.886-6.528-2.332a21.3 21.3 0 0 1-1.34-.981 21.3 21.3 0 0 1-1.341.981C62.668 55.114 60.479 56 58.284 56c-2.195 0-4.383-.886-6.528-2.332a21.3 21.3 0 0 1-1.34-.981 21.3 21.3 0 0 1-1.341.981C46.93 55.114 44.742 56 42.547 56c-2.195 0-4.384-.886-6.528-2.332a21.3 21.3 0 0 1-1.34-.981 21.3 21.3 0 0 1-1.341.981C31.193 55.114 29.004 56 26.81 56c-2.195 0-4.384-.886-6.528-2.332a21.3 21.3 0 0 1-1.34-.981 21.3 21.3 0 0 1-1.342.981C15.456 55.114 13.267 56 11.073 56c-2.243 0-4.32-.924-6.21-2.423-1.086-.862-1.887-1.723-2.36-2.34l-.412-.539V35.286h113.052v15.522l-.538.577c-.551.591-1.469 1.426-2.663 2.263-2.08 1.458-4.24 2.352-6.446 2.352-2.195 0-4.384-.886-6.528-2.332a21.3 21.3 0 0 1-1.34-.981z"/>
        <path stroke="#3A4461" stroke-linecap="square" stroke-linejoin="round" d="M71.158 56v43"/>
        <g transform="translate(77.155 68)">
            <path stroke="#3A4461" stroke-linecap="square" stroke-linejoin="round" d="M1.636 1.944v10.112"/>
            <ellipse cx="1.636" cy="1.167" fill="#3A4461" rx="1.636" ry="1.167"/>
            <ellipse cx="1.636" cy="12.833" fill="#3A4461" rx="1.636" ry="1.167"/>
        </g>
        <g stroke="#00C967" stroke-linecap="round" stroke-linejoin="round">
            <path d="M31.66 76.219l9.761-8.95M26.344 87.594l27.482-25.2M38.749 82.719l9.76-8.95"/>
        </g>
        <g transform="rotate(10 21.763 466.108)">
            <g stroke-linecap="round" stroke-linejoin="round">
                <use fill="#FFF" xlink:href="#a"/>
                <path stroke="#3A4461" stroke-width="4" d="M6.003-2h45.65a7 7 0 0 1 7 7v94.831a7 7 0 0 1-7 7H6.003a7 7 0 0 1-7-7V5a7 7 0 0 1 7-7z"/>
            </g>
            <ellipse cx="28.327" cy="95.176" stroke="#3A4461" rx="7.021" ry="6.397"/>
            <path stroke="#3A4461" stroke-linecap="round" stroke-linejoin="round" d="M57.154 85.06H.501M.501 12.414h56.653"/>
            <path stroke="#3A4461" stroke-linecap="round" stroke-linejoin="round" stroke-width="2" d="M22.811 6.437h13.037"/>
        </g>
    </g>
</svg>
