<svg xmlns="http://www.w3.org/2000/svg" width="140" height="120" viewBox="0 0 140 120">
    <g fill="none" fill-rule="evenodd" transform="rotate(-10 110.81 -.364)">
        <path stroke="#3A4461" stroke-linecap="round" stroke-linejoin="round" stroke-width="4" d="M120.022 33.775l-8.038 49.35h.64c1.11 0 2.009.893 2.009 2.001v7.873A2.002 2.002 0 0 1 112.624 95H14.967a2.002 2.002 0 0 1-2.009-2.001v-7.873c0-1.105.895-2.001 2.009-2.001h.64l-8.038-49.35a7.712 7.712 0 0 1-.591.023C3.124 33.798 0 30.935 0 27.404c0-3.532 3.124-6.394 6.978-6.394 3.853 0 6.977 2.862 6.977 6.394 0 2.043-1.045 3.862-2.673 5.033 3.743 6.118 14.72 22.37 25.697 22.37 9.468 0 18.937-21.948 23.763-35.106-4.57-1.211-7.911-5.075-7.911-9.653C52.83 4.498 57.74 0 63.796 0 69.85 0 74.76 4.499 74.76 10.048c0 4.44-3.142 8.207-7.5 9.536 4.812 13.144 14.31 35.224 23.806 35.224 10.85 0 21.698-15.878 25.563-22.154-1.81-1.155-2.993-3.076-2.993-5.25 0-3.532 3.124-6.394 6.977-6.394 3.854 0 6.978 2.862 6.978 6.394 0 3.531-3.124 6.394-6.978 6.394-.199 0-.396-.008-.591-.023z"/>
        <path stroke="#3A4461" stroke-linecap="square" stroke-linejoin="round" d="M16.858 83.5h96.056"/>
        <ellipse cx="82.88" cy="67" stroke="#3A4461" stroke-linecap="round" stroke-linejoin="round" rx="4.362" ry="4"/>
        <ellipse cx="43.621" cy="67" stroke="#3A4461" stroke-linecap="round" stroke-linejoin="round" rx="4.362" ry="4"/>
        <path fill="#00C967" d="M62.16 53.935l9.369 12.947-8.28 12.183-9.368-12.947z"/>
    </g>
</svg>
