<svg xmlns="http://www.w3.org/2000/svg" xmlns:xlink="http://www.w3.org/1999/xlink" width="110" height="100" viewBox="0 0 110 100">
    <defs>
        <path id="a" d="M70.263 60.089l4.26-2.055c1.488-.718 1.563-2.014.155-2.888L57.647 44.572c-2.337-1.45-3.414-.559-2.388 2.003l7.456 18.61c.613 1.53 1.902 1.694 2.872.347l2.762-3.838 6.84 8.151a1.248 1.248 0 1 0 1.913-1.606l-6.839-8.15z"/>
    </defs>
    <g fill="none" fill-rule="evenodd" transform="rotate(-10 66.801 40.041)">
        <path stroke="#3A4461" stroke-linecap="round" stroke-linejoin="round" stroke-width="4" d="M18.723 62.214v-36.22c0-3.86 3.14-6.994 6.995-6.994h57.564a6.999 6.999 0 0 1 6.995 6.993v36.221L101 69.61v4.22A5.167 5.167 0 0 1 95.832 79H13.168A5.171 5.171 0 0 1 8 73.83v-4.22l10.723-7.396z"/>
        <path fill="#3A4461" fill-rule="nonzero" d="M17.086 71h74.448a.5.5 0 1 0 0-1H17.086a.5.5 0 1 0 0 1zM18.744 63.33l71.84.104.002-1-71.84-.104z"/>
        <rect width="15.17" height="15.17" x="47.276" y="35.928" fill="#00C967" rx="7.585"/>
        <rect width="31.006" height="31.006" x="39.189" y="27.842" stroke="#00C967" stroke-linecap="round" stroke-linejoin="round" opacity=".2" rx="15.503"/>
        <g stroke-linecap="round" stroke-linejoin="round">
            <use fill="#FFF" xlink:href="#a"/>
            <path stroke="#3A4461" stroke-width="2" d="M71.856 60.43l6.012 7.167a2.25 2.25 0 1 1-3.445 2.891l-6.013-7.166-2.012 2.794c-1.429 1.985-3.704 1.705-4.611-.56L54.33 46.947c-1.385-3.457.684-5.185 3.843-3.224l17.031 10.574c2.078 1.29 1.952 3.577-.248 4.638l-3.101 1.496z"/>
        </g>
        <path fill="#00C967" fill-rule="nonzero" d="M16.856 15.295a1 1 0 0 1-1.532 1.285L9.539 9.686A1 1 0 0 1 11.07 8.4l5.785 6.895zm5.088-2.182a1 1 0 1 1-1.997.11l-.435-7.933a1 1 0 1 1 1.997-.11l.435 7.933zm-9.194 6.153a1 1 0 0 1-.461 1.946l-7.564-1.791a1 1 0 0 1 .46-1.946l7.565 1.79z"/>
    </g>
</svg>
