<svg xmlns="http://www.w3.org/2000/svg" xmlns:xlink="http://www.w3.org/1999/xlink" width="140" height="120" viewBox="0 0 140 120">
    <defs>
        <path id="a" d="M15.112 5.002A4.995 4.995 0 0 1 20.106 0h87.012a5 5 0 0 1 4.994 5.002V55h-97V5.002zm0 50.346h97l16 10.4v5.25A3.008 3.008 0 0 1 125.106 74H3.119a3.005 3.005 0 0 1-3.007-3.003v-5.25l15-10.399z"/>
    </defs>
    <g fill="none" fill-rule="evenodd">
        <g stroke-linejoin="round">
            <g stroke-linecap="round" transform="translate(5.888 38)">
                <use fill="#FFF" xlink:href="#a"/>
                <path stroke="#3A4461" stroke-width="4" d="M13.112 5.002A6.995 6.995 0 0 1 20.106-2h87.012c3.863 0 6.994 3.137 6.994 7.002V57h-101V5.002zm1.375 48.346h98.218l17.407 11.315v6.334A5.008 5.008 0 0 1 125.106 76H3.119a5.005 5.005 0 0 1-5.007-5.003v-6.296l16.375-11.353z"/>
            </g>
            <path stroke="#3A4461" stroke-linecap="round" d="M16.435 102.5h106.32"/>
            <path stroke="#3A4461" stroke-linecap="square" d="M19.519 93.5h101.168"/>
        </g>
        <path fill="#FFF" stroke="#3A4461" stroke-linecap="round" stroke-linejoin="round" d="M47.287 6.495l55.696 9.82 7.912 9.519L98.975 93.5H29.908L44.97 8.117a2 2 0 0 1 2.317-1.622z"/>
        <path fill="#3A4461" stroke="#3A4461" stroke-linecap="round" stroke-linejoin="round" d="M102.784 14.25l9.733 13.9-8.866-1.563v.001a3 3 0 0 1-2.433-3.476l1.566-8.863z"/>
        <path stroke="#3A4461" stroke-linecap="round" stroke-linejoin="round" stroke-width="4" d="M38.913 33.829l4.84-27.45a2 2 0 0 1 2.317-1.622l54.587 9.625a5 5 0 0 1 3.228 2.056l6.952 9.93a5 5 0 0 1 .828 3.735l-.957 5.429"/>
        <path fill="#00C967" d="M53.835 18.311l46.285 8.161-2.952 16.742-46.285-8.161zM44.11 73.46l18.712 3.3-1.39 7.878-18.711-3.3 1.39-7.878zm1.623 2.317l-.695 3.94L59.81 82.32l.695-3.94-14.772-2.604z"/>
        <path fill="#3A4461" d="M49.32 43.916l19.696 3.473-.695 3.94-19.696-3.474zM48.104 50.81L94.39 58.97l-.347 1.97-46.286-8.162zM47.41 54.749l46.286 8.161-.348 1.97-46.286-8.161zM46.715 58.688l46.286 8.162-.347 1.97-46.286-8.162zM77.534 68.184l14.772 2.605-.347 1.97-14.772-2.605z"/>
    </g>
</svg>
