<svg xmlns="http://www.w3.org/2000/svg" width="69" height="35" viewBox="0 0 69 35">
    <path fill="#FFF" fill-rule="evenodd" d="M10.533 18.871s3.362-.878-2.588 3.543c-5.95 4.42-8.99 11.73-7.62 12.445.817.427 7.62-4.779 18.186-8.442 4.213-1.46 9.63.158 16.091 0 3.28-.08 8.102-1.743 9.675-1.743.466 0 1.013 1.46 4.466 3.178 3.108 1.546 8.214.395 11.833 1.945 3.62 1.55 6.512 5.062 6.76 5.062.818 0 1.825-1.145 1.148-3.405-.676-2.26-1.86-3.022-4.157-5.763-2.297-2.742-7.337-6.82-7.337-6.82s.371-2.257-1.118-4.322c-1.488-2.066-5.586 0-5.586 0s-7.431-2.29-14.828-2.68c-7.397-.39-12.96.493-13.75.493-.792 0-.663-.778-.663-1.666 0-.489 6.233-1.68 10.392-3.773 3.382-1.7 6.273-4.777 5.983-5.146-.646-.823-7.27.413-8.902.7-1.933.34-5.106 1.215-5.106 1.215S29.814.691 28.518.139c-.843-.36-4.232-.094-7.473 1.638-3.242 1.732-3.938 2.82-6.15 4.28-1.9 1.254-4.131 1.643-5.702 2.76-3.667 2.607-5.71 5.515-5.71 6.38 0 4.515 7.05 3.674 7.05 3.674z"/>
</svg>
